<svg xmlns="http://www.w3.org/2000/svg" version="1.1" xmlns:xlink="http://www.w3.org/1999/xlink" xmlns:svgjs="http://svgjs.com/svgjs" width="1440" height="560" preserveAspectRatio="none" viewBox="0 0 1440 560"><g mask="url(&quot;#SvgjsMask1005&quot;)" fill="none"><rect width="1440" height="560" x="0" y="0" fill="#0e2a47"></rect><path d="M15.25 -52.54L80.2 -15.04L80.2 59.96L15.25 97.46L-49.7 59.96L-49.7 -15.04zM80.2 284.96L145.16 322.46L145.16 397.46L80.2 434.96L15.25 397.46L15.25 322.46zM80.2 509.96L145.16 547.46L145.16 622.46L80.2 659.96L15.25 622.46L15.25 547.46zM145.16 172.46L210.11 209.96L210.11 284.96L145.16 322.46L80.2 284.96L80.2 209.96zM275.06 172.46L340.02 209.96L340.02 284.96L275.06 322.46L210.11 284.96L210.11 209.96zM340.02 284.96L404.97 322.46L404.97 397.46L340.02 434.96L275.06 397.46L275.06 322.46zM275.06 397.46L340.02 434.96L340.02 509.96L275.06 547.46L210.11 509.96L210.11 434.96zM340.02 509.96L404.97 547.46L404.97 622.46L340.02 659.96L275.06 622.46L275.06 547.46zM469.93 59.96L534.88 97.46L534.88 172.46L469.93 209.96L404.97 172.46L404.97 97.46zM404.97 397.46L469.93 434.96L469.93 509.96L404.97 547.46L340.02 509.96L340.02 434.96zM534.88 -52.54L599.83 -15.04L599.83 59.96L534.88 97.46L469.93 59.96L469.93 -15.04zM599.83 59.96L664.79 97.46L664.79 172.46L599.83 209.96L534.88 172.46L534.88 97.46zM599.83 284.96L664.79 322.46L664.79 397.46L599.83 434.96L534.88 397.46L534.88 322.46zM599.83 509.96L664.79 547.46L664.79 622.46L599.83 659.96L534.88 622.46L534.88 547.46zM664.79 -52.54L729.74 -15.04L729.74 59.96L664.79 97.46L599.83 59.96L599.83 -15.04zM729.74 509.96L794.7 547.46L794.7 622.46L729.74 659.96L664.79 622.46L664.79 547.46zM794.69 397.46L859.65 434.96L859.65 509.96L794.69 547.46L729.74 509.96L729.74 434.96zM924.6 -52.54L989.56 -15.04L989.56 59.96L924.6 97.46L859.65 59.96L859.65 -15.04zM924.6 172.46L989.56 209.96L989.56 284.96L924.6 322.46L859.65 284.96L859.65 209.96zM924.6 397.46L989.56 434.96L989.56 509.96L924.6 547.46L859.65 509.96L859.65 434.96zM1184.42 -52.54L1249.37 -15.04L1249.37 59.96L1184.42 97.46L1119.46 59.96L1119.46 -15.04zM1184.42 172.46L1249.37 209.96L1249.37 284.96L1184.42 322.46L1119.46 284.96L1119.46 209.96zM1314.33 -52.54L1379.28 -15.04L1379.28 59.96L1314.33 97.46L1249.37 59.96L1249.37 -15.04zM1314.33 397.46L1379.28 434.96L1379.28 509.96L1314.33 547.46L1249.37 509.96L1249.37 434.96zM1509.19 59.96L1574.14 97.46L1574.14 172.46L1509.19 209.96L1444.23 172.46L1444.23 97.46zM1444.23 172.46L1509.19 209.96L1509.19 284.96L1444.23 322.46L1379.28 284.96L1379.28 209.96zM1509.19 284.96L1574.14 322.46L1574.14 397.46L1509.19 434.96L1444.23 397.46L1444.23 322.46z" stroke="#03305d" stroke-width="2"></path><path d="M7.75 -52.54 a7.5 7.5 0 1 0 15 0 a7.5 7.5 0 1 0 -15 0zM72.7 -15.04 a7.5 7.5 0 1 0 15 0 a7.5 7.5 0 1 0 -15 0zM72.7 59.96 a7.5 7.5 0 1 0 15 0 a7.5 7.5 0 1 0 -15 0zM7.75 97.46 a7.5 7.5 0 1 0 15 0 a7.5 7.5 0 1 0 -15 0zM-57.2 59.96 a7.5 7.5 0 1 0 15 0 a7.5 7.5 0 1 0 -15 0zM-57.2 -15.04 a7.5 7.5 0 1 0 15 0 a7.5 7.5 0 1 0 -15 0zM72.7 284.96 a7.5 7.5 0 1 0 15 0 a7.5 7.5 0 1 0 -15 0zM137.66 322.46 a7.5 7.5 0 1 0 15 0 a7.5 7.5 0 1 0 -15 0zM137.66 397.46 a7.5 7.5 0 1 0 15 0 a7.5 7.5 0 1 0 -15 0zM72.7 434.96 a7.5 7.5 0 1 0 15 0 a7.5 7.5 0 1 0 -15 0zM7.75 397.46 a7.5 7.5 0 1 0 15 0 a7.5 7.5 0 1 0 -15 0zM7.75 322.46 a7.5 7.5 0 1 0 15 0 a7.5 7.5 0 1 0 -15 0zM72.7 509.96 a7.5 7.5 0 1 0 15 0 a7.5 7.5 0 1 0 -15 0zM137.66 547.46 a7.5 7.5 0 1 0 15 0 a7.5 7.5 0 1 0 -15 0zM137.66 622.46 a7.5 7.5 0 1 0 15 0 a7.5 7.5 0 1 0 -15 0zM72.7 659.96 a7.5 7.5 0 1 0 15 0 a7.5 7.5 0 1 0 -15 0zM7.75 622.46 a7.5 7.5 0 1 0 15 0 a7.5 7.5 0 1 0 -15 0zM7.75 547.46 a7.5 7.5 0 1 0 15 0 a7.5 7.5 0 1 0 -15 0zM137.66 172.46 a7.5 7.5 0 1 0 15 0 a7.5 7.5 0 1 0 -15 0zM202.61 209.96 a7.5 7.5 0 1 0 15 0 a7.5 7.5 0 1 0 -15 0zM202.61 284.96 a7.5 7.5 0 1 0 15 0 a7.5 7.5 0 1 0 -15 0zM72.7 209.96 a7.5 7.5 0 1 0 15 0 a7.5 7.5 0 1 0 -15 0zM267.56 172.46 a7.5 7.5 0 1 0 15 0 a7.5 7.5 0 1 0 -15 0zM332.52 209.96 a7.5 7.5 0 1 0 15 0 a7.5 7.5 0 1 0 -15 0zM332.52 284.96 a7.5 7.5 0 1 0 15 0 a7.5 7.5 0 1 0 -15 0zM267.56 322.46 a7.5 7.5 0 1 0 15 0 a7.5 7.5 0 1 0 -15 0zM397.47 322.46 a7.5 7.5 0 1 0 15 0 a7.5 7.5 0 1 0 -15 0zM397.47 397.46 a7.5 7.5 0 1 0 15 0 a7.5 7.5 0 1 0 -15 0zM332.52 434.96 a7.5 7.5 0 1 0 15 0 a7.5 7.5 0 1 0 -15 0zM267.56 397.46 a7.5 7.5 0 1 0 15 0 a7.5 7.5 0 1 0 -15 0zM332.52 509.96 a7.5 7.5 0 1 0 15 0 a7.5 7.5 0 1 0 -15 0zM267.56 547.46 a7.5 7.5 0 1 0 15 0 a7.5 7.5 0 1 0 -15 0zM202.61 509.96 a7.5 7.5 0 1 0 15 0 a7.5 7.5 0 1 0 -15 0zM202.61 434.96 a7.5 7.5 0 1 0 15 0 a7.5 7.5 0 1 0 -15 0zM397.47 547.46 a7.5 7.5 0 1 0 15 0 a7.5 7.5 0 1 0 -15 0zM397.47 622.46 a7.5 7.5 0 1 0 15 0 a7.5 7.5 0 1 0 -15 0zM332.52 659.96 a7.5 7.5 0 1 0 15 0 a7.5 7.5 0 1 0 -15 0zM267.56 622.46 a7.5 7.5 0 1 0 15 0 a7.5 7.5 0 1 0 -15 0zM462.43 59.96 a7.5 7.5 0 1 0 15 0 a7.5 7.5 0 1 0 -15 0zM527.38 97.46 a7.5 7.5 0 1 0 15 0 a7.5 7.5 0 1 0 -15 0zM527.38 172.46 a7.5 7.5 0 1 0 15 0 a7.5 7.5 0 1 0 -15 0zM462.43 209.96 a7.5 7.5 0 1 0 15 0 a7.5 7.5 0 1 0 -15 0zM397.47 172.46 a7.5 7.5 0 1 0 15 0 a7.5 7.5 0 1 0 -15 0zM397.47 97.46 a7.5 7.5 0 1 0 15 0 a7.5 7.5 0 1 0 -15 0zM462.43 434.96 a7.5 7.5 0 1 0 15 0 a7.5 7.5 0 1 0 -15 0zM462.43 509.96 a7.5 7.5 0 1 0 15 0 a7.5 7.5 0 1 0 -15 0zM527.38 -52.54 a7.5 7.5 0 1 0 15 0 a7.5 7.5 0 1 0 -15 0zM592.33 -15.04 a7.5 7.5 0 1 0 15 0 a7.5 7.5 0 1 0 -15 0zM592.33 59.96 a7.5 7.5 0 1 0 15 0 a7.5 7.5 0 1 0 -15 0zM462.43 -15.04 a7.5 7.5 0 1 0 15 0 a7.5 7.5 0 1 0 -15 0zM657.29 97.46 a7.5 7.5 0 1 0 15 0 a7.5 7.5 0 1 0 -15 0zM657.29 172.46 a7.5 7.5 0 1 0 15 0 a7.5 7.5 0 1 0 -15 0zM592.33 209.96 a7.5 7.5 0 1 0 15 0 a7.5 7.5 0 1 0 -15 0zM592.33 284.96 a7.5 7.5 0 1 0 15 0 a7.5 7.5 0 1 0 -15 0zM657.29 322.46 a7.5 7.5 0 1 0 15 0 a7.5 7.5 0 1 0 -15 0zM657.29 397.46 a7.5 7.5 0 1 0 15 0 a7.5 7.5 0 1 0 -15 0zM592.33 434.96 a7.5 7.5 0 1 0 15 0 a7.5 7.5 0 1 0 -15 0zM527.38 397.46 a7.5 7.5 0 1 0 15 0 a7.5 7.5 0 1 0 -15 0zM527.38 322.46 a7.5 7.5 0 1 0 15 0 a7.5 7.5 0 1 0 -15 0zM592.33 509.96 a7.5 7.5 0 1 0 15 0 a7.5 7.5 0 1 0 -15 0zM657.29 547.46 a7.5 7.5 0 1 0 15 0 a7.5 7.5 0 1 0 -15 0zM657.29 622.46 a7.5 7.5 0 1 0 15 0 a7.5 7.5 0 1 0 -15 0zM592.33 659.96 a7.5 7.5 0 1 0 15 0 a7.5 7.5 0 1 0 -15 0zM527.38 622.46 a7.5 7.5 0 1 0 15 0 a7.5 7.5 0 1 0 -15 0zM527.38 547.46 a7.5 7.5 0 1 0 15 0 a7.5 7.5 0 1 0 -15 0zM657.29 -52.54 a7.5 7.5 0 1 0 15 0 a7.5 7.5 0 1 0 -15 0zM722.24 -15.04 a7.5 7.5 0 1 0 15 0 a7.5 7.5 0 1 0 -15 0zM722.24 59.96 a7.5 7.5 0 1 0 15 0 a7.5 7.5 0 1 0 -15 0zM722.24 509.96 a7.5 7.5 0 1 0 15 0 a7.5 7.5 0 1 0 -15 0zM787.2 547.46 a7.5 7.5 0 1 0 15 0 a7.5 7.5 0 1 0 -15 0zM787.2 622.46 a7.5 7.5 0 1 0 15 0 a7.5 7.5 0 1 0 -15 0zM722.24 659.96 a7.5 7.5 0 1 0 15 0 a7.5 7.5 0 1 0 -15 0zM787.19 397.46 a7.5 7.5 0 1 0 15 0 a7.5 7.5 0 1 0 -15 0zM852.15 434.96 a7.5 7.5 0 1 0 15 0 a7.5 7.5 0 1 0 -15 0zM852.15 509.96 a7.5 7.5 0 1 0 15 0 a7.5 7.5 0 1 0 -15 0zM787.19 547.46 a7.5 7.5 0 1 0 15 0 a7.5 7.5 0 1 0 -15 0zM722.24 434.96 a7.5 7.5 0 1 0 15 0 a7.5 7.5 0 1 0 -15 0zM917.1 -52.54 a7.5 7.5 0 1 0 15 0 a7.5 7.5 0 1 0 -15 0zM982.06 -15.04 a7.5 7.5 0 1 0 15 0 a7.5 7.5 0 1 0 -15 0zM982.06 59.96 a7.5 7.5 0 1 0 15 0 a7.5 7.5 0 1 0 -15 0zM917.1 97.46 a7.5 7.5 0 1 0 15 0 a7.5 7.5 0 1 0 -15 0zM852.15 59.96 a7.5 7.5 0 1 0 15 0 a7.5 7.5 0 1 0 -15 0zM852.15 -15.04 a7.5 7.5 0 1 0 15 0 a7.5 7.5 0 1 0 -15 0zM917.1 172.46 a7.5 7.5 0 1 0 15 0 a7.5 7.5 0 1 0 -15 0zM982.06 209.96 a7.5 7.5 0 1 0 15 0 a7.5 7.5 0 1 0 -15 0zM982.06 284.96 a7.5 7.5 0 1 0 15 0 a7.5 7.5 0 1 0 -15 0zM917.1 322.46 a7.5 7.5 0 1 0 15 0 a7.5 7.5 0 1 0 -15 0zM852.15 284.96 a7.5 7.5 0 1 0 15 0 a7.5 7.5 0 1 0 -15 0zM852.15 209.96 a7.5 7.5 0 1 0 15 0 a7.5 7.5 0 1 0 -15 0zM917.1 397.46 a7.5 7.5 0 1 0 15 0 a7.5 7.5 0 1 0 -15 0zM982.06 434.96 a7.5 7.5 0 1 0 15 0 a7.5 7.5 0 1 0 -15 0zM982.06 509.96 a7.5 7.5 0 1 0 15 0 a7.5 7.5 0 1 0 -15 0zM917.1 547.46 a7.5 7.5 0 1 0 15 0 a7.5 7.5 0 1 0 -15 0zM1176.92 -52.54 a7.5 7.5 0 1 0 15 0 a7.5 7.5 0 1 0 -15 0zM1241.87 -15.04 a7.5 7.5 0 1 0 15 0 a7.5 7.5 0 1 0 -15 0zM1241.87 59.96 a7.5 7.5 0 1 0 15 0 a7.5 7.5 0 1 0 -15 0zM1176.92 97.46 a7.5 7.5 0 1 0 15 0 a7.5 7.5 0 1 0 -15 0zM1111.96 59.96 a7.5 7.5 0 1 0 15 0 a7.5 7.5 0 1 0 -15 0zM1111.96 -15.04 a7.5 7.5 0 1 0 15 0 a7.5 7.5 0 1 0 -15 0zM1176.92 172.46 a7.5 7.5 0 1 0 15 0 a7.5 7.5 0 1 0 -15 0zM1241.87 209.96 a7.5 7.5 0 1 0 15 0 a7.5 7.5 0 1 0 -15 0zM1241.87 284.96 a7.5 7.5 0 1 0 15 0 a7.5 7.5 0 1 0 -15 0zM1176.92 322.46 a7.5 7.5 0 1 0 15 0 a7.5 7.5 0 1 0 -15 0zM1111.96 284.96 a7.5 7.5 0 1 0 15 0 a7.5 7.5 0 1 0 -15 0zM1111.96 209.96 a7.5 7.5 0 1 0 15 0 a7.5 7.5 0 1 0 -15 0zM1306.83 -52.54 a7.5 7.5 0 1 0 15 0 a7.5 7.5 0 1 0 -15 0zM1371.78 -15.04 a7.5 7.5 0 1 0 15 0 a7.5 7.5 0 1 0 -15 0zM1371.78 59.96 a7.5 7.5 0 1 0 15 0 a7.5 7.5 0 1 0 -15 0zM1306.83 97.46 a7.5 7.5 0 1 0 15 0 a7.5 7.5 0 1 0 -15 0zM1306.83 397.46 a7.5 7.5 0 1 0 15 0 a7.5 7.5 0 1 0 -15 0zM1371.78 434.96 a7.5 7.5 0 1 0 15 0 a7.5 7.5 0 1 0 -15 0zM1371.78 509.96 a7.5 7.5 0 1 0 15 0 a7.5 7.5 0 1 0 -15 0zM1306.83 547.46 a7.5 7.5 0 1 0 15 0 a7.5 7.5 0 1 0 -15 0zM1241.87 509.96 a7.5 7.5 0 1 0 15 0 a7.5 7.5 0 1 0 -15 0zM1241.87 434.96 a7.5 7.5 0 1 0 15 0 a7.5 7.5 0 1 0 -15 0zM1501.69 59.96 a7.5 7.5 0 1 0 15 0 a7.5 7.5 0 1 0 -15 0zM1566.64 97.46 a7.5 7.5 0 1 0 15 0 a7.5 7.5 0 1 0 -15 0zM1566.64 172.46 a7.5 7.5 0 1 0 15 0 a7.5 7.5 0 1 0 -15 0zM1501.69 209.96 a7.5 7.5 0 1 0 15 0 a7.5 7.5 0 1 0 -15 0zM1436.73 172.46 a7.5 7.5 0 1 0 15 0 a7.5 7.5 0 1 0 -15 0zM1436.73 97.46 a7.5 7.5 0 1 0 15 0 a7.5 7.5 0 1 0 -15 0zM1501.69 284.96 a7.5 7.5 0 1 0 15 0 a7.5 7.5 0 1 0 -15 0zM1436.73 322.46 a7.5 7.5 0 1 0 15 0 a7.5 7.5 0 1 0 -15 0zM1371.78 284.96 a7.5 7.5 0 1 0 15 0 a7.5 7.5 0 1 0 -15 0zM1371.78 209.96 a7.5 7.5 0 1 0 15 0 a7.5 7.5 0 1 0 -15 0zM1566.64 322.46 a7.5 7.5 0 1 0 15 0 a7.5 7.5 0 1 0 -15 0zM1566.64 397.46 a7.5 7.5 0 1 0 15 0 a7.5 7.5 0 1 0 -15 0zM1501.69 434.96 a7.5 7.5 0 1 0 15 0 a7.5 7.5 0 1 0 -15 0zM1436.73 397.46 a7.5 7.5 0 1 0 15 0 a7.5 7.5 0 1 0 -15 0z" fill="#03305d"></path><path d="M80.68 358.1L123.99 383.1L123.99 433.1L80.68 458.1L37.38 433.1L37.38 383.1zM37.38 433.1L80.68 458.1L80.68 508.1L37.38 533.1L-5.92 508.1L-5.92 458.1zM167.29 58.1L210.59 83.1L210.59 133.1L167.29 158.1L123.99 133.1L123.99 83.1zM167.29 208.1L210.59 233.1L210.59 283.1L167.29 308.1L123.99 283.1L123.99 233.1zM167.29 358.1L210.59 383.1L210.59 433.1L167.29 458.1L123.99 433.1L123.99 383.1zM167.29 508.1L210.59 533.1L210.59 583.1L167.29 608.1L123.99 583.1L123.99 533.1zM253.89 58.1L297.19 83.1L297.19 133.1L253.89 158.1L210.59 133.1L210.59 83.1zM210.59 133.1L253.89 158.1L253.89 208.1L210.59 233.1L167.29 208.1L167.29 158.1zM253.89 208.1L297.19 233.1L297.19 283.1L253.89 308.1L210.59 283.1L210.59 233.1zM210.59 283.1L253.89 308.1L253.89 358.1L210.59 383.1L167.29 358.1L167.29 308.1zM340.5 358.1L383.8 383.1L383.8 433.1L340.5 458.1L297.19 433.1L297.19 383.1zM383.8 -16.9L427.1 8.1L427.1 58.1L383.8 83.1L340.5 58.1L340.5 8.1zM427.1 58.1L470.41 83.1L470.41 133.1L427.1 158.1L383.8 133.1L383.8 83.1zM383.8 133.1L427.1 158.1L427.1 208.1L383.8 233.1L340.5 208.1L340.5 158.1zM427.1 508.1L470.41 533.1L470.41 583.1L427.1 608.1L383.8 583.1L383.8 533.1zM470.41 -16.9L513.71 8.1L513.71 58.1L470.41 83.1L427.1 58.1L427.1 8.1zM513.71 58.1L557.01 83.1L557.01 133.1L513.71 158.1L470.41 133.1L470.41 83.1zM470.41 283.1L513.71 308.1L513.71 358.1L470.41 383.1L427.1 358.1L427.1 308.1zM513.71 508.1L557.01 533.1L557.01 583.1L513.71 608.1L470.41 583.1L470.41 533.1zM557.01 -16.9L600.31 8.1L600.31 58.1L557.01 83.1L513.71 58.1L513.71 8.1zM600.31 58.1L643.62 83.1L643.62 133.1L600.31 158.1L557.01 133.1L557.01 83.1zM557.01 133.1L600.31 158.1L600.31 208.1L557.01 233.1L513.71 208.1L513.71 158.1zM557.01 433.1L600.31 458.1L600.31 508.1L557.01 533.1L513.71 508.1L513.71 458.1zM600.31 508.1L643.62 533.1L643.62 583.1L600.31 608.1L557.01 583.1L557.01 533.1zM686.92 208.1L730.22 233.1L730.22 283.1L686.92 308.1L643.62 283.1L643.62 233.1zM686.92 508.1L730.22 533.1L730.22 583.1L686.92 608.1L643.62 583.1L643.62 533.1zM730.22 -16.9L773.52 8.1L773.52 58.1L730.22 83.1L686.92 58.1L686.92 8.1zM730.22 133.1L773.52 158.1L773.52 208.1L730.22 233.1L686.92 208.1L686.92 158.1zM773.52 208.1L816.83 233.1L816.83 283.1L773.52 308.1L730.22 283.1L730.22 233.1zM816.83 -16.9L860.13 8.1L860.13 58.1L816.83 83.1L773.52 58.1L773.52 8.1zM860.13 58.1L903.43 83.1L903.43 133.1L860.13 158.1L816.83 133.1L816.83 83.1zM860.13 208.1L903.43 233.1L903.43 283.1L860.13 308.1L816.83 283.1L816.83 233.1zM860.13 508.1L903.43 533.1L903.43 583.1L860.13 608.1L816.83 583.1L816.83 533.1zM946.73 208.1L990.04 233.1L990.04 283.1L946.73 308.1L903.43 283.1L903.43 233.1zM903.43 283.1L946.73 308.1L946.73 358.1L903.43 383.1L860.13 358.1L860.13 308.1zM903.43 433.1L946.73 458.1L946.73 508.1L903.43 533.1L860.13 508.1L860.13 458.1zM946.73 508.1L990.04 533.1L990.04 583.1L946.73 608.1L903.43 583.1L903.43 533.1zM990.04 433.1L1033.34 458.1L1033.34 508.1L990.04 533.1L946.73 508.1L946.73 458.1zM1076.64 -16.9L1119.94 8.1L1119.94 58.1L1076.64 83.1L1033.34 58.1L1033.34 8.1zM1119.94 58.1L1163.25 83.1L1163.25 133.1L1119.94 158.1L1076.64 133.1L1076.64 83.1zM1119.94 358.1L1163.25 383.1L1163.25 433.1L1119.94 458.1L1076.64 433.1L1076.64 383.1zM1163.25 -16.9L1206.55 8.1L1206.55 58.1L1163.25 83.1L1119.94 58.1L1119.94 8.1zM1163.25 283.1L1206.55 308.1L1206.55 358.1L1163.25 383.1L1119.94 358.1L1119.94 308.1zM1249.85 -16.9L1293.15 8.1L1293.15 58.1L1249.85 83.1L1206.55 58.1L1206.55 8.1zM1293.15 58.1L1336.46 83.1L1336.46 133.1L1293.15 158.1L1249.85 133.1L1249.85 83.1zM1249.85 133.1L1293.15 158.1L1293.15 208.1L1249.85 233.1L1206.55 208.1L1206.55 158.1zM1249.85 433.1L1293.15 458.1L1293.15 508.1L1249.85 533.1L1206.55 508.1L1206.55 458.1zM1379.76 58.1L1423.06 83.1L1423.06 133.1L1379.76 158.1L1336.46 133.1L1336.46 83.1zM1336.46 133.1L1379.76 158.1L1379.76 208.1L1336.46 233.1L1293.15 208.1L1293.15 158.1zM1379.76 208.1L1423.06 233.1L1423.06 283.1L1379.76 308.1L1336.46 283.1L1336.46 233.1zM1466.36 58.1L1509.67 83.1L1509.67 133.1L1466.36 158.1L1423.06 133.1L1423.06 83.1zM1423.06 133.1L1466.36 158.1L1466.36 208.1L1423.06 233.1L1379.76 208.1L1379.76 158.1zM1423.06 283.1L1466.36 308.1L1466.36 358.1L1423.06 383.1L1379.76 358.1L1379.76 308.1zM1423.06 433.1L1466.36 458.1L1466.36 508.1L1423.06 533.1L1379.76 508.1L1379.76 458.1z" stroke="rgba(6, 80, 156, 0.93)" stroke-width="2"></path></g><defs><mask id="SvgjsMask1005"><rect width="1440" height="560" fill="#ffffff"></rect></mask></defs></svg>