<svg xmlns="http://www.w3.org/2000/svg" version="1.1" xmlns:xlink="http://www.w3.org/1999/xlink" xmlns:svgjs="http://svgjs.com/svgjs" width="1440" height="560" preserveAspectRatio="none" viewBox="0 0 1440 560"><g mask="url(&quot;#SvgjsMask1517&quot;)" fill="none"><rect width="1440" height="560" x="0" y="0" fill="url(#SvgjsLinearGradient1518)"></rect><path d="M19.52 253.4L45.5 268.4L45.5 298.4L19.52 313.4L-6.46 298.4L-6.46 268.4zM45.5 298.4L71.48 313.4L71.48 343.4L45.5 358.4L19.52 343.4L19.52 313.4zM19.52 433.4L45.5 448.4L45.5 478.4L19.52 493.4L-6.46 478.4L-6.46 448.4zM97.46 118.4L123.45 133.4L123.45 163.4L97.46 178.4L71.48 163.4L71.48 133.4zM97.46 298.4L123.45 313.4L123.45 343.4L97.46 358.4L71.48 343.4L71.48 313.4zM149.43 28.4L175.41 43.4L175.41 73.4L149.43 88.4L123.45 73.4L123.45 43.4zM149.43 388.4L175.41 403.4L175.41 433.4L149.43 448.4L123.45 433.4L123.45 403.4zM149.43 478.4L175.41 493.4L175.41 523.4L149.43 538.4L123.45 523.4L123.45 493.4zM201.39 118.4L227.37 133.4L227.37 163.4L201.39 178.4L175.41 163.4L175.41 133.4zM201.39 208.4L227.37 223.4L227.37 253.4L201.39 268.4L175.41 253.4L175.41 223.4zM175.41 433.4L201.39 448.4L201.39 478.4L175.41 493.4L149.43 478.4L149.43 448.4zM201.39 478.4L227.37 493.4L227.37 523.4L201.39 538.4L175.41 523.4L175.41 493.4zM227.37 73.4L253.35 88.4L253.35 118.4L227.37 133.4L201.39 118.4L201.39 88.4zM253.35 118.4L279.33 133.4L279.33 163.4L253.35 178.4L227.37 163.4L227.37 133.4zM227.37 163.4L253.35 178.4L253.35 208.4L227.37 223.4L201.39 208.4L201.39 178.4zM253.35 208.4L279.33 223.4L279.33 253.4L253.35 268.4L227.37 253.4L227.37 223.4zM227.37 343.4L253.35 358.4L253.35 388.4L227.37 403.4L201.39 388.4L201.39 358.4zM227.37 433.4L253.35 448.4L253.35 478.4L227.37 493.4L201.39 478.4L201.39 448.4zM253.35 478.4L279.33 493.4L279.33 523.4L253.35 538.4L227.37 523.4L227.37 493.4zM279.33 73.4L305.32 88.4L305.32 118.4L279.33 133.4L253.35 118.4L253.35 88.4zM305.32 118.4L331.3 133.4L331.3 163.4L305.32 178.4L279.33 163.4L279.33 133.4zM357.28 208.4L383.26 223.4L383.26 253.4L357.28 268.4L331.3 253.4L331.3 223.4zM331.3 523.4L357.28 538.4L357.28 568.4L331.3 583.4L305.32 568.4L305.32 538.4zM383.26 -16.6L409.24 -1.6L409.24 28.4L383.26 43.4L357.28 28.4L357.28 -1.6zM383.26 73.4L409.24 88.4L409.24 118.4L383.26 133.4L357.28 118.4L357.28 88.4zM409.24 298.4L435.22 313.4L435.22 343.4L409.24 358.4L383.26 343.4L383.26 313.4zM461.21 118.4L487.19 133.4L487.19 163.4L461.21 178.4L435.22 163.4L435.22 133.4zM435.22 163.4L461.21 178.4L461.21 208.4L435.22 223.4L409.24 208.4L409.24 178.4zM435.22 343.4L461.21 358.4L461.21 388.4L435.22 403.4L409.24 388.4L409.24 358.4zM461.21 388.4L487.19 403.4L487.19 433.4L461.21 448.4L435.22 433.4L435.22 403.4zM487.19 -16.6L513.17 -1.6L513.17 28.4L487.19 43.4L461.21 28.4L461.21 -1.6zM513.17 118.4L539.15 133.4L539.15 163.4L513.17 178.4L487.19 163.4L487.19 133.4zM487.19 253.4L513.17 268.4L513.17 298.4L487.19 313.4L461.21 298.4L461.21 268.4zM539.15 73.4L565.13 88.4L565.13 118.4L539.15 133.4L513.17 118.4L513.17 88.4zM539.15 253.4L565.13 268.4L565.13 298.4L539.15 313.4L513.17 298.4L513.17 268.4zM539.15 433.4L565.13 448.4L565.13 478.4L539.15 493.4L513.17 478.4L513.17 448.4zM565.13 478.4L591.11 493.4L591.11 523.4L565.13 538.4L539.15 523.4L539.15 493.4zM617.09 118.4L643.08 133.4L643.08 163.4L617.09 178.4L591.11 163.4L591.11 133.4zM591.11 523.4L617.09 538.4L617.09 568.4L591.11 583.4L565.13 568.4L565.13 538.4zM643.08 163.4L669.06 178.4L669.06 208.4L643.08 223.4L617.09 208.4L617.09 178.4zM669.06 298.4L695.04 313.4L695.04 343.4L669.06 358.4L643.08 343.4L643.08 313.4zM695.04 253.4L721.02 268.4L721.02 298.4L695.04 313.4L669.06 298.4L669.06 268.4zM772.98 118.4L798.96 133.4L798.96 163.4L772.98 178.4L747 163.4L747 133.4zM747 253.4L772.98 268.4L772.98 298.4L747 313.4L721.02 298.4L721.02 268.4zM824.95 28.4L850.93 43.4L850.93 73.4L824.95 88.4L798.97 73.4L798.97 43.4zM824.95 388.4L850.93 403.4L850.93 433.4L824.95 448.4L798.97 433.4L798.97 403.4zM798.97 523.4L824.95 538.4L824.95 568.4L798.97 583.4L772.98 568.4L772.98 538.4zM850.93 163.4L876.91 178.4L876.91 208.4L850.93 223.4L824.95 208.4L824.95 178.4zM876.91 298.4L902.89 313.4L902.89 343.4L876.91 358.4L850.93 343.4L850.93 313.4zM850.93 343.4L876.91 358.4L876.91 388.4L850.93 403.4L824.95 388.4L824.95 358.4zM876.91 478.4L902.89 493.4L902.89 523.4L876.91 538.4L850.93 523.4L850.93 493.4zM902.89 -16.6L928.87 -1.6L928.87 28.4L902.89 43.4L876.91 28.4L876.91 -1.6zM902.89 73.4L928.87 88.4L928.87 118.4L902.89 133.4L876.91 118.4L876.91 88.4zM928.87 298.4L954.85 313.4L954.85 343.4L928.87 358.4L902.89 343.4L902.89 313.4zM928.87 388.4L954.85 403.4L954.85 433.4L928.87 448.4L902.89 433.4L902.89 403.4zM980.84 118.4L1006.82 133.4L1006.82 163.4L980.84 178.4L954.85 163.4L954.85 133.4zM954.85 343.4L980.84 358.4L980.84 388.4L954.85 403.4L928.87 388.4L928.87 358.4zM954.85 433.4L980.84 448.4L980.84 478.4L954.85 493.4L928.87 478.4L928.87 448.4zM1032.8 118.4L1058.78 133.4L1058.78 163.4L1032.8 178.4L1006.82 163.4L1006.82 133.4zM1006.82 163.4L1032.8 178.4L1032.8 208.4L1006.82 223.4L980.84 208.4L980.84 178.4zM1006.82 253.4L1032.8 268.4L1032.8 298.4L1006.82 313.4L980.84 298.4L980.84 268.4zM1084.76 208.4L1110.74 223.4L1110.74 253.4L1084.76 268.4L1058.78 253.4L1058.78 223.4zM1084.76 298.4L1110.74 313.4L1110.74 343.4L1084.76 358.4L1058.78 343.4L1058.78 313.4zM1084.76 478.4L1110.74 493.4L1110.74 523.4L1084.76 538.4L1058.78 523.4L1058.78 493.4zM1110.74 73.4L1136.72 88.4L1136.72 118.4L1110.74 133.4L1084.76 118.4L1084.76 88.4zM1110.74 253.4L1136.72 268.4L1136.72 298.4L1110.74 313.4L1084.76 298.4L1084.76 268.4zM1136.72 298.4L1162.71 313.4L1162.71 343.4L1136.72 358.4L1110.74 343.4L1110.74 313.4zM1110.74 433.4L1136.72 448.4L1136.72 478.4L1110.74 493.4L1084.76 478.4L1084.76 448.4zM1162.71 73.4L1188.69 88.4L1188.69 118.4L1162.71 133.4L1136.72 118.4L1136.72 88.4zM1162.71 253.4L1188.69 268.4L1188.69 298.4L1162.71 313.4L1136.72 298.4L1136.72 268.4zM1162.71 433.4L1188.69 448.4L1188.69 478.4L1162.71 493.4L1136.72 478.4L1136.72 448.4zM1162.71 523.4L1188.69 538.4L1188.69 568.4L1162.71 583.4L1136.72 568.4L1136.72 538.4zM1240.65 28.4L1266.63 43.4L1266.63 73.4L1240.65 88.4L1214.67 73.4L1214.67 43.4zM1214.67 73.4L1240.65 88.4L1240.65 118.4L1214.67 133.4L1188.69 118.4L1188.69 88.4zM1240.65 208.4L1266.63 223.4L1266.63 253.4L1240.65 268.4L1214.67 253.4L1214.67 223.4zM1214.67 253.4L1240.65 268.4L1240.65 298.4L1214.67 313.4L1188.69 298.4L1188.69 268.4zM1214.67 523.4L1240.65 538.4L1240.65 568.4L1214.67 583.4L1188.69 568.4L1188.69 538.4zM1292.61 298.4L1318.6 313.4L1318.6 343.4L1292.61 358.4L1266.63 343.4L1266.63 313.4zM1266.63 343.4L1292.61 358.4L1292.61 388.4L1266.63 403.4L1240.65 388.4L1240.65 358.4zM1292.61 478.4L1318.6 493.4L1318.6 523.4L1292.61 538.4L1266.63 523.4L1266.63 493.4zM1318.6 -16.6L1344.58 -1.6L1344.58 28.4L1318.6 43.4L1292.61 28.4L1292.61 -1.6zM1318.6 73.4L1344.58 88.4L1344.58 118.4L1318.6 133.4L1292.61 118.4L1292.61 88.4zM1318.6 253.4L1344.58 268.4L1344.58 298.4L1318.6 313.4L1292.61 298.4L1292.61 268.4zM1344.58 478.4L1370.56 493.4L1370.56 523.4L1344.58 538.4L1318.6 523.4L1318.6 493.4zM1370.56 -16.6L1396.54 -1.6L1396.54 28.4L1370.56 43.4L1344.58 28.4L1344.58 -1.6zM1396.54 28.4L1422.52 43.4L1422.52 73.4L1396.54 88.4L1370.56 73.4L1370.56 43.4zM1370.56 73.4L1396.54 88.4L1396.54 118.4L1370.56 133.4L1344.58 118.4L1344.58 88.4zM1370.56 163.4L1396.54 178.4L1396.54 208.4L1370.56 223.4L1344.58 208.4L1344.58 178.4zM1396.54 478.4L1422.52 493.4L1422.52 523.4L1396.54 538.4L1370.56 523.4L1370.56 493.4zM1448.5 118.4L1474.48 133.4L1474.48 163.4L1448.5 178.4L1422.52 163.4L1422.52 133.4zM1448.5 208.4L1474.48 223.4L1474.48 253.4L1448.5 268.4L1422.52 253.4L1422.52 223.4zM1422.52 253.4L1448.5 268.4L1448.5 298.4L1422.52 313.4L1396.54 298.4L1396.54 268.4zM1448.5 478.4L1474.48 493.4L1474.48 523.4L1448.5 538.4L1422.52 523.4L1422.52 493.4z" stroke="rgba(66, 68, 90, 1)" stroke-width="2"></path><path d="M34.76 -7.67L83.26 20.33L83.26 76.33L34.76 104.33L-13.74 76.33L-13.74 20.33zM34.76 496.33L83.26 524.33L83.26 580.33L34.76 608.33L-13.74 580.33L-13.74 524.33zM83.26 580.33L131.76 608.33L131.76 664.33L83.26 692.33L34.76 664.33L34.76 608.33zM180.26 76.33L228.76 104.33L228.76 160.33L180.26 188.33L131.76 160.33L131.76 104.33zM180.26 412.33L228.76 440.33L228.76 496.33L180.26 524.33L131.76 496.33L131.76 440.33zM131.76 496.33L180.26 524.33L180.26 580.33L131.76 608.33L83.26 580.33L83.26 524.33zM180.26 580.33L228.76 608.33L228.76 664.33L180.26 692.33L131.76 664.33L131.76 608.33zM277.25 76.33L325.75 104.33L325.75 160.33L277.25 188.33L228.76 160.33L228.76 104.33zM228.76 328.33L277.25 356.33L277.25 412.33L228.76 440.33L180.26 412.33L180.26 356.33zM277.25 412.33L325.75 440.33L325.75 496.33L277.25 524.33L228.76 496.33L228.76 440.33zM228.76 496.33L277.25 524.33L277.25 580.33L228.76 608.33L180.26 580.33L180.26 524.33zM325.75 160.33L374.25 188.33L374.25 244.33L325.75 272.33L277.25 244.33L277.25 188.33zM325.75 496.33L374.25 524.33L374.25 580.33L325.75 608.33L277.25 580.33L277.25 524.33zM471.25 76.33L519.75 104.33L519.75 160.33L471.25 188.33L422.75 160.33L422.75 104.33zM471.25 244.33L519.75 272.33L519.75 328.33L471.25 356.33L422.75 328.33L422.75 272.33zM422.75 328.33L471.25 356.33L471.25 412.33L422.75 440.33L374.25 412.33L374.25 356.33zM519.75 -7.67L568.25 20.33L568.25 76.33L519.75 104.33L471.25 76.33L471.25 20.33zM568.25 76.33L616.75 104.33L616.75 160.33L568.25 188.33L519.75 160.33L519.75 104.33zM519.75 160.33L568.25 188.33L568.25 244.33L519.75 272.33L471.25 244.33L471.25 188.33zM568.25 412.33L616.75 440.33L616.75 496.33L568.25 524.33L519.75 496.33L519.75 440.33zM519.75 496.33L568.25 524.33L568.25 580.33L519.75 608.33L471.25 580.33L471.25 524.33zM665.24 76.33L713.74 104.33L713.74 160.33L665.24 188.33L616.75 160.33L616.75 104.33zM665.24 244.33L713.74 272.33L713.74 328.33L665.24 356.33L616.75 328.33L616.75 272.33zM665.24 412.33L713.74 440.33L713.74 496.33L665.24 524.33L616.75 496.33L616.75 440.33zM616.75 496.33L665.24 524.33L665.24 580.33L616.75 608.33L568.25 580.33L568.25 524.33zM762.24 76.33L810.74 104.33L810.74 160.33L762.24 188.33L713.74 160.33L713.74 104.33zM762.24 244.33L810.74 272.33L810.74 328.33L762.24 356.33L713.74 328.33L713.74 272.33zM713.74 496.33L762.24 524.33L762.24 580.33L713.74 608.33L665.24 580.33L665.24 524.33zM762.24 580.33L810.74 608.33L810.74 664.33L762.24 692.33L713.74 664.33L713.74 608.33zM810.74 -7.67L859.24 20.33L859.24 76.33L810.74 104.33L762.24 76.33L762.24 20.33zM810.74 496.33L859.24 524.33L859.24 580.33L810.74 608.33L762.24 580.33L762.24 524.33zM859.24 580.33L907.74 608.33L907.74 664.33L859.24 692.33L810.74 664.33L810.74 608.33zM956.24 244.33L1004.74 272.33L1004.74 328.33L956.24 356.33L907.74 328.33L907.74 272.33zM907.74 328.33L956.24 356.33L956.24 412.33L907.74 440.33L859.24 412.33L859.24 356.33zM956.24 580.33L1004.74 608.33L1004.74 664.33L956.24 692.33L907.74 664.33L907.74 608.33zM1004.74 160.33L1053.23 188.33L1053.23 244.33L1004.74 272.33L956.24 244.33L956.24 188.33zM1053.23 244.33L1101.73 272.33L1101.73 328.33L1053.23 356.33L1004.74 328.33L1004.74 272.33zM1004.74 328.33L1053.23 356.33L1053.23 412.33L1004.74 440.33L956.24 412.33L956.24 356.33zM1053.23 412.33L1101.73 440.33L1101.73 496.33L1053.23 524.33L1004.74 496.33L1004.74 440.33zM1004.74 496.33L1053.23 524.33L1053.23 580.33L1004.74 608.33L956.24 580.33L956.24 524.33zM1053.23 580.33L1101.73 608.33L1101.73 664.33L1053.23 692.33L1004.74 664.33L1004.74 608.33zM1101.73 -7.67L1150.23 20.33L1150.23 76.33L1101.73 104.33L1053.23 76.33L1053.23 20.33zM1150.23 244.33L1198.73 272.33L1198.73 328.33L1150.23 356.33L1101.73 328.33L1101.73 272.33zM1150.23 580.33L1198.73 608.33L1198.73 664.33L1150.23 692.33L1101.73 664.33L1101.73 608.33zM1247.23 244.33L1295.73 272.33L1295.73 328.33L1247.23 356.33L1198.73 328.33L1198.73 272.33zM1344.23 76.33L1392.73 104.33L1392.73 160.33L1344.23 188.33L1295.73 160.33L1295.73 104.33zM1344.23 244.33L1392.73 272.33L1392.73 328.33L1344.23 356.33L1295.73 328.33L1295.73 272.33zM1392.73 -7.67L1441.23 20.33L1441.23 76.33L1392.73 104.33L1344.23 76.33L1344.23 20.33zM1441.23 76.33L1489.72 104.33L1489.72 160.33L1441.23 188.33L1392.73 160.33L1392.73 104.33zM1441.23 244.33L1489.72 272.33L1489.72 328.33L1441.23 356.33L1392.73 328.33L1392.73 272.33zM1441.23 412.33L1489.72 440.33L1489.72 496.33L1441.23 524.33L1392.73 496.33L1392.73 440.33z" stroke="#03305d" stroke-width="2"></path><path d="M29.16 -7.67 a5.6 5.6 0 1 0 11.2 0 a5.6 5.6 0 1 0 -11.2 0zM77.66 20.33 a5.6 5.6 0 1 0 11.2 0 a5.6 5.6 0 1 0 -11.2 0zM77.66 76.33 a5.6 5.6 0 1 0 11.2 0 a5.6 5.6 0 1 0 -11.2 0zM29.16 104.33 a5.6 5.6 0 1 0 11.2 0 a5.6 5.6 0 1 0 -11.2 0zM-19.34 76.33 a5.6 5.6 0 1 0 11.2 0 a5.6 5.6 0 1 0 -11.2 0zM-19.34 20.33 a5.6 5.6 0 1 0 11.2 0 a5.6 5.6 0 1 0 -11.2 0zM29.16 496.33 a5.6 5.6 0 1 0 11.2 0 a5.6 5.6 0 1 0 -11.2 0zM77.66 524.33 a5.6 5.6 0 1 0 11.2 0 a5.6 5.6 0 1 0 -11.2 0zM77.66 580.33 a5.6 5.6 0 1 0 11.2 0 a5.6 5.6 0 1 0 -11.2 0zM29.16 608.33 a5.6 5.6 0 1 0 11.2 0 a5.6 5.6 0 1 0 -11.2 0zM-19.34 580.33 a5.6 5.6 0 1 0 11.2 0 a5.6 5.6 0 1 0 -11.2 0zM-19.34 524.33 a5.6 5.6 0 1 0 11.2 0 a5.6 5.6 0 1 0 -11.2 0zM126.16 608.33 a5.6 5.6 0 1 0 11.2 0 a5.6 5.6 0 1 0 -11.2 0zM126.16 664.33 a5.6 5.6 0 1 0 11.2 0 a5.6 5.6 0 1 0 -11.2 0zM77.66 692.33 a5.6 5.6 0 1 0 11.2 0 a5.6 5.6 0 1 0 -11.2 0zM29.16 664.33 a5.6 5.6 0 1 0 11.2 0 a5.6 5.6 0 1 0 -11.2 0zM174.66 76.33 a5.6 5.6 0 1 0 11.2 0 a5.6 5.6 0 1 0 -11.2 0zM223.16 104.33 a5.6 5.6 0 1 0 11.2 0 a5.6 5.6 0 1 0 -11.2 0zM223.16 160.33 a5.6 5.6 0 1 0 11.2 0 a5.6 5.6 0 1 0 -11.2 0zM174.66 188.33 a5.6 5.6 0 1 0 11.2 0 a5.6 5.6 0 1 0 -11.2 0zM126.16 160.33 a5.6 5.6 0 1 0 11.2 0 a5.6 5.6 0 1 0 -11.2 0zM126.16 104.33 a5.6 5.6 0 1 0 11.2 0 a5.6 5.6 0 1 0 -11.2 0zM174.66 412.33 a5.6 5.6 0 1 0 11.2 0 a5.6 5.6 0 1 0 -11.2 0zM223.16 440.33 a5.6 5.6 0 1 0 11.2 0 a5.6 5.6 0 1 0 -11.2 0zM223.16 496.33 a5.6 5.6 0 1 0 11.2 0 a5.6 5.6 0 1 0 -11.2 0zM174.66 524.33 a5.6 5.6 0 1 0 11.2 0 a5.6 5.6 0 1 0 -11.2 0zM126.16 496.33 a5.6 5.6 0 1 0 11.2 0 a5.6 5.6 0 1 0 -11.2 0zM126.16 440.33 a5.6 5.6 0 1 0 11.2 0 a5.6 5.6 0 1 0 -11.2 0zM174.66 580.33 a5.6 5.6 0 1 0 11.2 0 a5.6 5.6 0 1 0 -11.2 0zM223.16 608.33 a5.6 5.6 0 1 0 11.2 0 a5.6 5.6 0 1 0 -11.2 0zM223.16 664.33 a5.6 5.6 0 1 0 11.2 0 a5.6 5.6 0 1 0 -11.2 0zM174.66 692.33 a5.6 5.6 0 1 0 11.2 0 a5.6 5.6 0 1 0 -11.2 0zM271.65 76.33 a5.6 5.6 0 1 0 11.2 0 a5.6 5.6 0 1 0 -11.2 0zM320.15 104.33 a5.6 5.6 0 1 0 11.2 0 a5.6 5.6 0 1 0 -11.2 0zM320.15 160.33 a5.6 5.6 0 1 0 11.2 0 a5.6 5.6 0 1 0 -11.2 0zM271.65 188.33 a5.6 5.6 0 1 0 11.2 0 a5.6 5.6 0 1 0 -11.2 0zM223.16 328.33 a5.6 5.6 0 1 0 11.2 0 a5.6 5.6 0 1 0 -11.2 0zM271.65 356.33 a5.6 5.6 0 1 0 11.2 0 a5.6 5.6 0 1 0 -11.2 0zM271.65 412.33 a5.6 5.6 0 1 0 11.2 0 a5.6 5.6 0 1 0 -11.2 0zM174.66 356.33 a5.6 5.6 0 1 0 11.2 0 a5.6 5.6 0 1 0 -11.2 0zM320.15 440.33 a5.6 5.6 0 1 0 11.2 0 a5.6 5.6 0 1 0 -11.2 0zM320.15 496.33 a5.6 5.6 0 1 0 11.2 0 a5.6 5.6 0 1 0 -11.2 0zM271.65 524.33 a5.6 5.6 0 1 0 11.2 0 a5.6 5.6 0 1 0 -11.2 0zM271.65 580.33 a5.6 5.6 0 1 0 11.2 0 a5.6 5.6 0 1 0 -11.2 0zM368.65 188.33 a5.6 5.6 0 1 0 11.2 0 a5.6 5.6 0 1 0 -11.2 0zM368.65 244.33 a5.6 5.6 0 1 0 11.2 0 a5.6 5.6 0 1 0 -11.2 0zM320.15 272.33 a5.6 5.6 0 1 0 11.2 0 a5.6 5.6 0 1 0 -11.2 0zM271.65 244.33 a5.6 5.6 0 1 0 11.2 0 a5.6 5.6 0 1 0 -11.2 0zM368.65 524.33 a5.6 5.6 0 1 0 11.2 0 a5.6 5.6 0 1 0 -11.2 0zM368.65 580.33 a5.6 5.6 0 1 0 11.2 0 a5.6 5.6 0 1 0 -11.2 0zM320.15 608.33 a5.6 5.6 0 1 0 11.2 0 a5.6 5.6 0 1 0 -11.2 0zM465.65 76.33 a5.6 5.6 0 1 0 11.2 0 a5.6 5.6 0 1 0 -11.2 0zM514.15 104.33 a5.6 5.6 0 1 0 11.2 0 a5.6 5.6 0 1 0 -11.2 0zM514.15 160.33 a5.6 5.6 0 1 0 11.2 0 a5.6 5.6 0 1 0 -11.2 0zM465.65 188.33 a5.6 5.6 0 1 0 11.2 0 a5.6 5.6 0 1 0 -11.2 0zM417.15 160.33 a5.6 5.6 0 1 0 11.2 0 a5.6 5.6 0 1 0 -11.2 0zM417.15 104.33 a5.6 5.6 0 1 0 11.2 0 a5.6 5.6 0 1 0 -11.2 0zM465.65 244.33 a5.6 5.6 0 1 0 11.2 0 a5.6 5.6 0 1 0 -11.2 0zM514.15 272.33 a5.6 5.6 0 1 0 11.2 0 a5.6 5.6 0 1 0 -11.2 0zM514.15 328.33 a5.6 5.6 0 1 0 11.2 0 a5.6 5.6 0 1 0 -11.2 0zM465.65 356.33 a5.6 5.6 0 1 0 11.2 0 a5.6 5.6 0 1 0 -11.2 0zM417.15 328.33 a5.6 5.6 0 1 0 11.2 0 a5.6 5.6 0 1 0 -11.2 0zM417.15 272.33 a5.6 5.6 0 1 0 11.2 0 a5.6 5.6 0 1 0 -11.2 0zM465.65 412.33 a5.6 5.6 0 1 0 11.2 0 a5.6 5.6 0 1 0 -11.2 0zM417.15 440.33 a5.6 5.6 0 1 0 11.2 0 a5.6 5.6 0 1 0 -11.2 0zM368.65 412.33 a5.6 5.6 0 1 0 11.2 0 a5.6 5.6 0 1 0 -11.2 0zM368.65 356.33 a5.6 5.6 0 1 0 11.2 0 a5.6 5.6 0 1 0 -11.2 0zM514.15 -7.67 a5.6 5.6 0 1 0 11.2 0 a5.6 5.6 0 1 0 -11.2 0zM562.65 20.33 a5.6 5.6 0 1 0 11.2 0 a5.6 5.6 0 1 0 -11.2 0zM562.65 76.33 a5.6 5.6 0 1 0 11.2 0 a5.6 5.6 0 1 0 -11.2 0zM465.65 20.33 a5.6 5.6 0 1 0 11.2 0 a5.6 5.6 0 1 0 -11.2 0zM611.15 104.33 a5.6 5.6 0 1 0 11.2 0 a5.6 5.6 0 1 0 -11.2 0zM611.15 160.33 a5.6 5.6 0 1 0 11.2 0 a5.6 5.6 0 1 0 -11.2 0zM562.65 188.33 a5.6 5.6 0 1 0 11.2 0 a5.6 5.6 0 1 0 -11.2 0zM562.65 244.33 a5.6 5.6 0 1 0 11.2 0 a5.6 5.6 0 1 0 -11.2 0zM562.65 412.33 a5.6 5.6 0 1 0 11.2 0 a5.6 5.6 0 1 0 -11.2 0zM611.15 440.33 a5.6 5.6 0 1 0 11.2 0 a5.6 5.6 0 1 0 -11.2 0zM611.15 496.33 a5.6 5.6 0 1 0 11.2 0 a5.6 5.6 0 1 0 -11.2 0zM562.65 524.33 a5.6 5.6 0 1 0 11.2 0 a5.6 5.6 0 1 0 -11.2 0zM514.15 496.33 a5.6 5.6 0 1 0 11.2 0 a5.6 5.6 0 1 0 -11.2 0zM514.15 440.33 a5.6 5.6 0 1 0 11.2 0 a5.6 5.6 0 1 0 -11.2 0zM562.65 580.33 a5.6 5.6 0 1 0 11.2 0 a5.6 5.6 0 1 0 -11.2 0zM514.15 608.33 a5.6 5.6 0 1 0 11.2 0 a5.6 5.6 0 1 0 -11.2 0zM465.65 580.33 a5.6 5.6 0 1 0 11.2 0 a5.6 5.6 0 1 0 -11.2 0zM465.65 524.33 a5.6 5.6 0 1 0 11.2 0 a5.6 5.6 0 1 0 -11.2 0zM659.64 76.33 a5.6 5.6 0 1 0 11.2 0 a5.6 5.6 0 1 0 -11.2 0zM708.14 104.33 a5.6 5.6 0 1 0 11.2 0 a5.6 5.6 0 1 0 -11.2 0zM708.14 160.33 a5.6 5.6 0 1 0 11.2 0 a5.6 5.6 0 1 0 -11.2 0zM659.64 188.33 a5.6 5.6 0 1 0 11.2 0 a5.6 5.6 0 1 0 -11.2 0zM659.64 244.33 a5.6 5.6 0 1 0 11.2 0 a5.6 5.6 0 1 0 -11.2 0zM708.14 272.33 a5.6 5.6 0 1 0 11.2 0 a5.6 5.6 0 1 0 -11.2 0zM708.14 328.33 a5.6 5.6 0 1 0 11.2 0 a5.6 5.6 0 1 0 -11.2 0zM659.64 356.33 a5.6 5.6 0 1 0 11.2 0 a5.6 5.6 0 1 0 -11.2 0zM611.15 328.33 a5.6 5.6 0 1 0 11.2 0 a5.6 5.6 0 1 0 -11.2 0zM611.15 272.33 a5.6 5.6 0 1 0 11.2 0 a5.6 5.6 0 1 0 -11.2 0zM659.64 412.33 a5.6 5.6 0 1 0 11.2 0 a5.6 5.6 0 1 0 -11.2 0zM708.14 440.33 a5.6 5.6 0 1 0 11.2 0 a5.6 5.6 0 1 0 -11.2 0zM708.14 496.33 a5.6 5.6 0 1 0 11.2 0 a5.6 5.6 0 1 0 -11.2 0zM659.64 524.33 a5.6 5.6 0 1 0 11.2 0 a5.6 5.6 0 1 0 -11.2 0zM659.64 580.33 a5.6 5.6 0 1 0 11.2 0 a5.6 5.6 0 1 0 -11.2 0zM611.15 608.33 a5.6 5.6 0 1 0 11.2 0 a5.6 5.6 0 1 0 -11.2 0zM756.64 76.33 a5.6 5.6 0 1 0 11.2 0 a5.6 5.6 0 1 0 -11.2 0zM805.14 104.33 a5.6 5.6 0 1 0 11.2 0 a5.6 5.6 0 1 0 -11.2 0zM805.14 160.33 a5.6 5.6 0 1 0 11.2 0 a5.6 5.6 0 1 0 -11.2 0zM756.64 188.33 a5.6 5.6 0 1 0 11.2 0 a5.6 5.6 0 1 0 -11.2 0zM756.64 244.33 a5.6 5.6 0 1 0 11.2 0 a5.6 5.6 0 1 0 -11.2 0zM805.14 272.33 a5.6 5.6 0 1 0 11.2 0 a5.6 5.6 0 1 0 -11.2 0zM805.14 328.33 a5.6 5.6 0 1 0 11.2 0 a5.6 5.6 0 1 0 -11.2 0zM756.64 356.33 a5.6 5.6 0 1 0 11.2 0 a5.6 5.6 0 1 0 -11.2 0zM756.64 524.33 a5.6 5.6 0 1 0 11.2 0 a5.6 5.6 0 1 0 -11.2 0zM756.64 580.33 a5.6 5.6 0 1 0 11.2 0 a5.6 5.6 0 1 0 -11.2 0zM708.14 608.33 a5.6 5.6 0 1 0 11.2 0 a5.6 5.6 0 1 0 -11.2 0zM805.14 608.33 a5.6 5.6 0 1 0 11.2 0 a5.6 5.6 0 1 0 -11.2 0zM805.14 664.33 a5.6 5.6 0 1 0 11.2 0 a5.6 5.6 0 1 0 -11.2 0zM756.64 692.33 a5.6 5.6 0 1 0 11.2 0 a5.6 5.6 0 1 0 -11.2 0zM708.14 664.33 a5.6 5.6 0 1 0 11.2 0 a5.6 5.6 0 1 0 -11.2 0zM805.14 -7.67 a5.6 5.6 0 1 0 11.2 0 a5.6 5.6 0 1 0 -11.2 0zM853.64 20.33 a5.6 5.6 0 1 0 11.2 0 a5.6 5.6 0 1 0 -11.2 0zM853.64 76.33 a5.6 5.6 0 1 0 11.2 0 a5.6 5.6 0 1 0 -11.2 0zM756.64 20.33 a5.6 5.6 0 1 0 11.2 0 a5.6 5.6 0 1 0 -11.2 0zM805.14 496.33 a5.6 5.6 0 1 0 11.2 0 a5.6 5.6 0 1 0 -11.2 0zM853.64 524.33 a5.6 5.6 0 1 0 11.2 0 a5.6 5.6 0 1 0 -11.2 0zM853.64 580.33 a5.6 5.6 0 1 0 11.2 0 a5.6 5.6 0 1 0 -11.2 0zM902.14 608.33 a5.6 5.6 0 1 0 11.2 0 a5.6 5.6 0 1 0 -11.2 0zM902.14 664.33 a5.6 5.6 0 1 0 11.2 0 a5.6 5.6 0 1 0 -11.2 0zM853.64 692.33 a5.6 5.6 0 1 0 11.2 0 a5.6 5.6 0 1 0 -11.2 0zM950.64 244.33 a5.6 5.6 0 1 0 11.2 0 a5.6 5.6 0 1 0 -11.2 0zM999.14 272.33 a5.6 5.6 0 1 0 11.2 0 a5.6 5.6 0 1 0 -11.2 0zM999.14 328.33 a5.6 5.6 0 1 0 11.2 0 a5.6 5.6 0 1 0 -11.2 0zM950.64 356.33 a5.6 5.6 0 1 0 11.2 0 a5.6 5.6 0 1 0 -11.2 0zM902.14 328.33 a5.6 5.6 0 1 0 11.2 0 a5.6 5.6 0 1 0 -11.2 0zM902.14 272.33 a5.6 5.6 0 1 0 11.2 0 a5.6 5.6 0 1 0 -11.2 0zM950.64 412.33 a5.6 5.6 0 1 0 11.2 0 a5.6 5.6 0 1 0 -11.2 0zM902.14 440.33 a5.6 5.6 0 1 0 11.2 0 a5.6 5.6 0 1 0 -11.2 0zM853.64 412.33 a5.6 5.6 0 1 0 11.2 0 a5.6 5.6 0 1 0 -11.2 0zM853.64 356.33 a5.6 5.6 0 1 0 11.2 0 a5.6 5.6 0 1 0 -11.2 0zM950.64 580.33 a5.6 5.6 0 1 0 11.2 0 a5.6 5.6 0 1 0 -11.2 0zM999.14 608.33 a5.6 5.6 0 1 0 11.2 0 a5.6 5.6 0 1 0 -11.2 0zM999.14 664.33 a5.6 5.6 0 1 0 11.2 0 a5.6 5.6 0 1 0 -11.2 0zM950.64 692.33 a5.6 5.6 0 1 0 11.2 0 a5.6 5.6 0 1 0 -11.2 0zM999.14 160.33 a5.6 5.6 0 1 0 11.2 0 a5.6 5.6 0 1 0 -11.2 0zM1047.63 188.33 a5.6 5.6 0 1 0 11.2 0 a5.6 5.6 0 1 0 -11.2 0zM1047.63 244.33 a5.6 5.6 0 1 0 11.2 0 a5.6 5.6 0 1 0 -11.2 0zM950.64 188.33 a5.6 5.6 0 1 0 11.2 0 a5.6 5.6 0 1 0 -11.2 0zM1096.13 272.33 a5.6 5.6 0 1 0 11.2 0 a5.6 5.6 0 1 0 -11.2 0zM1096.13 328.33 a5.6 5.6 0 1 0 11.2 0 a5.6 5.6 0 1 0 -11.2 0zM1047.63 356.33 a5.6 5.6 0 1 0 11.2 0 a5.6 5.6 0 1 0 -11.2 0zM1047.63 412.33 a5.6 5.6 0 1 0 11.2 0 a5.6 5.6 0 1 0 -11.2 0zM999.14 440.33 a5.6 5.6 0 1 0 11.2 0 a5.6 5.6 0 1 0 -11.2 0zM1096.13 440.33 a5.6 5.6 0 1 0 11.2 0 a5.6 5.6 0 1 0 -11.2 0zM1096.13 496.33 a5.6 5.6 0 1 0 11.2 0 a5.6 5.6 0 1 0 -11.2 0zM1047.63 524.33 a5.6 5.6 0 1 0 11.2 0 a5.6 5.6 0 1 0 -11.2 0zM999.14 496.33 a5.6 5.6 0 1 0 11.2 0 a5.6 5.6 0 1 0 -11.2 0zM1047.63 580.33 a5.6 5.6 0 1 0 11.2 0 a5.6 5.6 0 1 0 -11.2 0zM950.64 524.33 a5.6 5.6 0 1 0 11.2 0 a5.6 5.6 0 1 0 -11.2 0zM1096.13 608.33 a5.6 5.6 0 1 0 11.2 0 a5.6 5.6 0 1 0 -11.2 0zM1096.13 664.33 a5.6 5.6 0 1 0 11.2 0 a5.6 5.6 0 1 0 -11.2 0zM1047.63 692.33 a5.6 5.6 0 1 0 11.2 0 a5.6 5.6 0 1 0 -11.2 0zM1096.13 -7.67 a5.6 5.6 0 1 0 11.2 0 a5.6 5.6 0 1 0 -11.2 0zM1144.63 20.33 a5.6 5.6 0 1 0 11.2 0 a5.6 5.6 0 1 0 -11.2 0zM1144.63 76.33 a5.6 5.6 0 1 0 11.2 0 a5.6 5.6 0 1 0 -11.2 0zM1096.13 104.33 a5.6 5.6 0 1 0 11.2 0 a5.6 5.6 0 1 0 -11.2 0zM1047.63 76.33 a5.6 5.6 0 1 0 11.2 0 a5.6 5.6 0 1 0 -11.2 0zM1047.63 20.33 a5.6 5.6 0 1 0 11.2 0 a5.6 5.6 0 1 0 -11.2 0zM1144.63 244.33 a5.6 5.6 0 1 0 11.2 0 a5.6 5.6 0 1 0 -11.2 0zM1193.13 272.33 a5.6 5.6 0 1 0 11.2 0 a5.6 5.6 0 1 0 -11.2 0zM1193.13 328.33 a5.6 5.6 0 1 0 11.2 0 a5.6 5.6 0 1 0 -11.2 0zM1144.63 356.33 a5.6 5.6 0 1 0 11.2 0 a5.6 5.6 0 1 0 -11.2 0zM1144.63 580.33 a5.6 5.6 0 1 0 11.2 0 a5.6 5.6 0 1 0 -11.2 0zM1193.13 608.33 a5.6 5.6 0 1 0 11.2 0 a5.6 5.6 0 1 0 -11.2 0zM1193.13 664.33 a5.6 5.6 0 1 0 11.2 0 a5.6 5.6 0 1 0 -11.2 0zM1144.63 692.33 a5.6 5.6 0 1 0 11.2 0 a5.6 5.6 0 1 0 -11.2 0zM1241.63 244.33 a5.6 5.6 0 1 0 11.2 0 a5.6 5.6 0 1 0 -11.2 0zM1290.13 272.33 a5.6 5.6 0 1 0 11.2 0 a5.6 5.6 0 1 0 -11.2 0zM1290.13 328.33 a5.6 5.6 0 1 0 11.2 0 a5.6 5.6 0 1 0 -11.2 0zM1241.63 356.33 a5.6 5.6 0 1 0 11.2 0 a5.6 5.6 0 1 0 -11.2 0zM1338.63 76.33 a5.6 5.6 0 1 0 11.2 0 a5.6 5.6 0 1 0 -11.2 0zM1387.13 104.33 a5.6 5.6 0 1 0 11.2 0 a5.6 5.6 0 1 0 -11.2 0zM1387.13 160.33 a5.6 5.6 0 1 0 11.2 0 a5.6 5.6 0 1 0 -11.2 0zM1338.63 188.33 a5.6 5.6 0 1 0 11.2 0 a5.6 5.6 0 1 0 -11.2 0zM1290.13 160.33 a5.6 5.6 0 1 0 11.2 0 a5.6 5.6 0 1 0 -11.2 0zM1290.13 104.33 a5.6 5.6 0 1 0 11.2 0 a5.6 5.6 0 1 0 -11.2 0zM1338.63 244.33 a5.6 5.6 0 1 0 11.2 0 a5.6 5.6 0 1 0 -11.2 0zM1387.13 272.33 a5.6 5.6 0 1 0 11.2 0 a5.6 5.6 0 1 0 -11.2 0zM1387.13 328.33 a5.6 5.6 0 1 0 11.2 0 a5.6 5.6 0 1 0 -11.2 0zM1338.63 356.33 a5.6 5.6 0 1 0 11.2 0 a5.6 5.6 0 1 0 -11.2 0zM1387.13 -7.67 a5.6 5.6 0 1 0 11.2 0 a5.6 5.6 0 1 0 -11.2 0zM1435.63 20.33 a5.6 5.6 0 1 0 11.2 0 a5.6 5.6 0 1 0 -11.2 0zM1435.63 76.33 a5.6 5.6 0 1 0 11.2 0 a5.6 5.6 0 1 0 -11.2 0zM1338.63 20.33 a5.6 5.6 0 1 0 11.2 0 a5.6 5.6 0 1 0 -11.2 0zM1484.12 104.33 a5.6 5.6 0 1 0 11.2 0 a5.6 5.6 0 1 0 -11.2 0zM1484.12 160.33 a5.6 5.6 0 1 0 11.2 0 a5.6 5.6 0 1 0 -11.2 0zM1435.63 188.33 a5.6 5.6 0 1 0 11.2 0 a5.6 5.6 0 1 0 -11.2 0zM1435.63 244.33 a5.6 5.6 0 1 0 11.2 0 a5.6 5.6 0 1 0 -11.2 0zM1484.12 272.33 a5.6 5.6 0 1 0 11.2 0 a5.6 5.6 0 1 0 -11.2 0zM1484.12 328.33 a5.6 5.6 0 1 0 11.2 0 a5.6 5.6 0 1 0 -11.2 0zM1435.63 356.33 a5.6 5.6 0 1 0 11.2 0 a5.6 5.6 0 1 0 -11.2 0zM1435.63 412.33 a5.6 5.6 0 1 0 11.2 0 a5.6 5.6 0 1 0 -11.2 0zM1484.12 440.33 a5.6 5.6 0 1 0 11.2 0 a5.6 5.6 0 1 0 -11.2 0zM1484.12 496.33 a5.6 5.6 0 1 0 11.2 0 a5.6 5.6 0 1 0 -11.2 0zM1435.63 524.33 a5.6 5.6 0 1 0 11.2 0 a5.6 5.6 0 1 0 -11.2 0zM1387.13 496.33 a5.6 5.6 0 1 0 11.2 0 a5.6 5.6 0 1 0 -11.2 0zM1387.13 440.33 a5.6 5.6 0 1 0 11.2 0 a5.6 5.6 0 1 0 -11.2 0z" fill="#03305d"></path><path d="M45.37 -22.38L87.81 2.12L87.81 51.12L45.37 75.62L2.93 51.12L2.93 2.12zM87.81 345.12L130.24 369.62L130.24 418.62L87.81 443.12L45.37 418.62L45.37 369.62zM45.37 418.62L87.81 443.12L87.81 492.12L45.37 516.62L2.93 492.12L2.93 443.12zM130.24 -22.38L172.68 2.12L172.68 51.12L130.24 75.62L87.81 51.12L87.81 2.12zM172.68 345.12L215.12 369.62L215.12 418.62L172.68 443.12L130.24 418.62L130.24 369.62zM130.24 418.62L172.68 443.12L172.68 492.12L130.24 516.62L87.81 492.12L87.81 443.12zM130.24 565.62L172.68 590.12L172.68 639.12L130.24 663.62L87.81 639.12L87.81 590.12zM215.12 -22.38L257.55 2.12L257.55 51.12L215.12 75.62L172.68 51.12L172.68 2.12zM257.55 51.12L299.99 75.62L299.99 124.62L257.55 149.12L215.12 124.62L215.12 75.62zM215.12 124.62L257.55 149.12L257.55 198.12L215.12 222.62L172.68 198.12L172.68 149.12zM257.55 198.12L299.99 222.62L299.99 271.62L257.55 296.12L215.12 271.62L215.12 222.62zM215.12 271.62L257.55 296.12L257.55 345.12L215.12 369.62L172.68 345.12L172.68 296.12zM215.12 418.62L257.55 443.12L257.55 492.12L215.12 516.62L172.68 492.12L172.68 443.12zM257.55 492.12L299.99 516.62L299.99 565.62L257.55 590.12L215.12 565.62L215.12 516.62zM215.12 565.62L257.55 590.12L257.55 639.12L215.12 663.62L172.68 639.12L172.68 590.12zM299.99 -22.38L342.43 2.12L342.43 51.12L299.99 75.62L257.55 51.12L257.55 2.12zM342.43 51.12L384.86 75.62L384.86 124.62L342.43 149.12L299.99 124.62L299.99 75.62zM299.99 124.62L342.43 149.12L342.43 198.12L299.99 222.62L257.55 198.12L257.55 149.12zM342.43 198.12L384.86 222.62L384.86 271.62L342.43 296.12L299.99 271.62L299.99 222.62zM299.99 271.62L342.43 296.12L342.43 345.12L299.99 369.62L257.55 345.12L257.55 296.12zM342.43 345.12L384.86 369.62L384.86 418.62L342.43 443.12L299.99 418.62L299.99 369.62zM299.99 418.62L342.43 443.12L342.43 492.12L299.99 516.62L257.55 492.12L257.55 443.12zM299.99 565.62L342.43 590.12L342.43 639.12L299.99 663.62L257.55 639.12L257.55 590.12zM384.86 -22.38L427.3 2.12L427.3 51.12L384.86 75.62L342.43 51.12L342.43 2.12zM384.86 271.62L427.3 296.12L427.3 345.12L384.86 369.62L342.43 345.12L342.43 296.12zM384.86 418.62L427.3 443.12L427.3 492.12L384.86 516.62L342.43 492.12L342.43 443.12zM427.3 492.12L469.73 516.62L469.73 565.62L427.3 590.12L384.86 565.62L384.86 516.62zM384.86 565.62L427.3 590.12L427.3 639.12L384.86 663.62L342.43 639.12L342.43 590.12zM469.73 -22.38L512.17 2.12L512.17 51.12L469.73 75.62L427.3 51.12L427.3 2.12zM469.73 124.62L512.17 149.12L512.17 198.12L469.73 222.62L427.3 198.12L427.3 149.12zM512.17 198.12L554.61 222.62L554.61 271.62L512.17 296.12L469.73 271.62L469.73 222.62zM469.73 271.62L512.17 296.12L512.17 345.12L469.73 369.62L427.3 345.12L427.3 296.12zM512.17 492.12L554.61 516.62L554.61 565.62L512.17 590.12L469.73 565.62L469.73 516.62zM554.61 271.62L597.04 296.12L597.04 345.12L554.61 369.62L512.17 345.12L512.17 296.12zM554.61 565.62L597.04 590.12L597.04 639.12L554.61 663.62L512.17 639.12L512.17 590.12zM639.48 124.62L681.92 149.12L681.92 198.12L639.48 222.62L597.04 198.12L597.04 149.12zM639.48 271.62L681.92 296.12L681.92 345.12L639.48 369.62L597.04 345.12L597.04 296.12zM681.92 345.12L724.35 369.62L724.35 418.62L681.92 443.12L639.48 418.62L639.48 369.62zM681.92 492.12L724.35 516.62L724.35 565.62L681.92 590.12L639.48 565.62L639.48 516.62zM724.35 124.62L766.79 149.12L766.79 198.12L724.35 222.62L681.92 198.12L681.92 149.12zM766.79 198.12L809.23 222.62L809.23 271.62L766.79 296.12L724.35 271.62L724.35 222.62zM766.79 492.12L809.23 516.62L809.23 565.62L766.79 590.12L724.35 565.62L724.35 516.62zM724.35 565.62L766.79 590.12L766.79 639.12L724.35 663.62L681.92 639.12L681.92 590.12zM809.23 -22.38L851.66 2.12L851.66 51.12L809.23 75.62L766.79 51.12L766.79 2.12zM851.66 51.12L894.1 75.62L894.1 124.62L851.66 149.12L809.23 124.62L809.23 75.62zM809.23 124.62L851.66 149.12L851.66 198.12L809.23 222.62L766.79 198.12L766.79 149.12zM851.66 198.12L894.1 222.62L894.1 271.62L851.66 296.12L809.23 271.62L809.23 222.62zM809.23 418.62L851.66 443.12L851.66 492.12L809.23 516.62L766.79 492.12L766.79 443.12zM851.66 492.12L894.1 516.62L894.1 565.62L851.66 590.12L809.23 565.62L809.23 516.62zM809.23 565.62L851.66 590.12L851.66 639.12L809.23 663.62L766.79 639.12L766.79 590.12zM936.54 198.12L978.97 222.62L978.97 271.62L936.54 296.12L894.1 271.62L894.1 222.62zM936.54 492.12L978.97 516.62L978.97 565.62L936.54 590.12L894.1 565.62L894.1 516.62zM894.1 565.62L936.54 590.12L936.54 639.12L894.1 663.62L851.66 639.12L851.66 590.12zM978.97 -22.38L1021.41 2.12L1021.41 51.12L978.97 75.62L936.54 51.12L936.54 2.12zM978.97 124.62L1021.41 149.12L1021.41 198.12L978.97 222.62L936.54 198.12L936.54 149.12zM1021.41 198.12L1063.84 222.62L1063.84 271.62L1021.41 296.12L978.97 271.62L978.97 222.62zM978.97 271.62L1021.41 296.12L1021.41 345.12L978.97 369.62L936.54 345.12L936.54 296.12zM978.97 418.62L1021.41 443.12L1021.41 492.12L978.97 516.62L936.54 492.12L936.54 443.12zM1063.84 124.62L1106.28 149.12L1106.28 198.12L1063.84 222.62L1021.41 198.12L1021.41 149.12zM1106.28 198.12L1148.72 222.62L1148.72 271.62L1106.28 296.12L1063.84 271.62L1063.84 222.62zM1063.84 271.62L1106.28 296.12L1106.28 345.12L1063.84 369.62L1021.41 345.12L1021.41 296.12zM1106.28 345.12L1148.72 369.62L1148.72 418.62L1106.28 443.12L1063.84 418.62L1063.84 369.62zM1063.84 418.62L1106.28 443.12L1106.28 492.12L1063.84 516.62L1021.41 492.12L1021.41 443.12zM1106.28 492.12L1148.72 516.62L1148.72 565.62L1106.28 590.12L1063.84 565.62L1063.84 516.62zM1148.72 -22.38L1191.15 2.12L1191.15 51.12L1148.72 75.62L1106.28 51.12L1106.28 2.12zM1191.15 51.12L1233.59 75.62L1233.59 124.62L1191.15 149.12L1148.72 124.62L1148.72 75.62zM1191.15 198.12L1233.59 222.62L1233.59 271.62L1191.15 296.12L1148.72 271.62L1148.72 222.62zM1148.72 271.62L1191.15 296.12L1191.15 345.12L1148.72 369.62L1106.28 345.12L1106.28 296.12zM1148.72 418.62L1191.15 443.12L1191.15 492.12L1148.72 516.62L1106.28 492.12L1106.28 443.12zM1276.03 51.12L1318.46 75.62L1318.46 124.62L1276.03 149.12L1233.59 124.62L1233.59 75.62zM1233.59 124.62L1276.03 149.12L1276.03 198.12L1233.59 222.62L1191.15 198.12L1191.15 149.12zM1276.03 198.12L1318.46 222.62L1318.46 271.62L1276.03 296.12L1233.59 271.62L1233.59 222.62zM1276.03 345.12L1318.46 369.62L1318.46 418.62L1276.03 443.12L1233.59 418.62L1233.59 369.62zM1318.46 -22.38L1360.9 2.12L1360.9 51.12L1318.46 75.62L1276.03 51.12L1276.03 2.12zM1360.9 51.12L1403.34 75.62L1403.34 124.62L1360.9 149.12L1318.46 124.62L1318.46 75.62zM1318.46 124.62L1360.9 149.12L1360.9 198.12L1318.46 222.62L1276.03 198.12L1276.03 149.12zM1360.9 198.12L1403.34 222.62L1403.34 271.62L1360.9 296.12L1318.46 271.62L1318.46 222.62zM1318.46 271.62L1360.9 296.12L1360.9 345.12L1318.46 369.62L1276.03 345.12L1276.03 296.12zM1360.9 345.12L1403.34 369.62L1403.34 418.62L1360.9 443.12L1318.46 418.62L1318.46 369.62zM1318.46 565.62L1360.9 590.12L1360.9 639.12L1318.46 663.62L1276.03 639.12L1276.03 590.12zM1403.34 -22.38L1445.77 2.12L1445.77 51.12L1403.34 75.62L1360.9 51.12L1360.9 2.12zM1403.34 124.62L1445.77 149.12L1445.77 198.12L1403.34 222.62L1360.9 198.12L1360.9 149.12zM1445.77 198.12L1488.21 222.62L1488.21 271.62L1445.77 296.12L1403.34 271.62L1403.34 222.62zM1403.34 271.62L1445.77 296.12L1445.77 345.12L1403.34 369.62L1360.9 345.12L1360.9 296.12zM1403.34 418.62L1445.77 443.12L1445.77 492.12L1403.34 516.62L1360.9 492.12L1360.9 443.12zM1445.77 492.12L1488.21 516.62L1488.21 565.62L1445.77 590.12L1403.34 565.62L1403.34 516.62z" stroke="rgba(6, 80, 156, 0.93)" stroke-width="2"></path></g><defs><mask id="SvgjsMask1517"><rect width="1440" height="560" fill="#ffffff"></rect></mask><linearGradient x1="50%" y1="0%" x2="50%" y2="100%" gradientUnits="userSpaceOnUse" id="SvgjsLinearGradient1518"><stop stop-color="rgba(14, 42, 71, 1)" offset="0.65"></stop><stop stop-color="#00459e" offset="1"></stop></linearGradient></defs></svg>