<svg xmlns="http://www.w3.org/2000/svg" version="1.1" xmlns:xlink="http://www.w3.org/1999/xlink" xmlns:svgjs="http://svgjs.com/svgjs" width="1440" height="560" preserveAspectRatio="none" viewBox="0 0 1440 560"><g mask="url(&quot;#SvgjsMask1486&quot;)" fill="none"><rect width="1440" height="560" x="0" y="0" fill="url(#SvgjsLinearGradient1487)"></rect><path d="M-58.8 529.58L-58.8 529.58" stroke="rgba(218, 180, 157, 1)" stroke-width="1.5"></path><path d="M-58.8 529.58L76.19 500.84" stroke="rgba(218, 180, 157, 1)" stroke-width="1.5"></path><path d="M-58.8 529.58L47.78 637.97" stroke="rgba(218, 180, 157, 1)" stroke-width="1.5"></path><path d="M-58.8 529.58L-78.04 696.4" stroke="rgba(218, 180, 157, 1)" stroke-width="1.5"></path><path d="M-78.04 696.4L-78.04 696.4" stroke="rgba(218, 180, 157, 1)" stroke-width="1.5"></path><path d="M-78.04 696.4L47.78 637.97" stroke="rgba(218, 180, 157, 1)" stroke-width="1.5"></path><path d="M-78.04 696.4L76.19 500.84" stroke="rgba(218, 180, 157, 1)" stroke-width="1.5"></path><path d="M52.86 354.89L52.86 354.89" stroke="rgba(218, 180, 157, 1)" stroke-width="1.5"></path><path d="M52.86 354.89L76.19 500.84" stroke="rgba(218, 180, 157, 1)" stroke-width="1.5"></path><path d="M52.86 354.89L257.38 380.01" stroke="rgba(218, 180, 157, 1)" stroke-width="1.5"></path><path d="M52.86 354.89L-58.8 529.58" stroke="rgba(218, 180, 157, 1)" stroke-width="1.5"></path><path d="M52.86 354.89L245.66 518.87" stroke="rgba(218, 180, 157, 1)" stroke-width="1.5"></path><path d="M52.86 354.89L47.78 637.97" stroke="rgba(218, 180, 157, 1)" stroke-width="1.5"></path><path d="M76.19 500.84L76.19 500.84" stroke="rgba(218, 180, 157, 1)" stroke-width="1.5"></path><path d="M76.19 500.84L47.78 637.97" stroke="rgba(218, 180, 157, 1)" stroke-width="1.5"></path><path d="M76.19 500.84L245.66 518.87" stroke="rgba(218, 180, 157, 1)" stroke-width="1.5"></path><path d="M47.78 637.97L47.78 637.97" stroke="rgba(218, 180, 157, 1)" stroke-width="1.5"></path><path d="M47.78 637.97L223.19 701.19" stroke="rgba(218, 180, 157, 1)" stroke-width="1.5"></path><path d="M47.78 637.97L245.66 518.87" stroke="rgba(218, 180, 157, 1)" stroke-width="1.5"></path><path d="M257.38 380.01L257.38 380.01" stroke="rgba(218, 180, 157, 1)" stroke-width="1.5"></path><path d="M257.38 380.01L391.28 366.39" stroke="rgba(218, 180, 157, 1)" stroke-width="1.5"></path><path d="M257.38 380.01L245.66 518.87" stroke="rgba(218, 180, 157, 1)" stroke-width="1.5"></path><path d="M257.38 380.01L365.35 539.42" stroke="rgba(218, 180, 157, 1)" stroke-width="1.5"></path><path d="M257.38 380.01L76.19 500.84" stroke="rgba(218, 180, 157, 1)" stroke-width="1.5"></path><path d="M257.38 380.01L528.62 366.86" stroke="rgba(218, 180, 157, 1)" stroke-width="1.5"></path><path d="M245.66 518.87L245.66 518.87" stroke="rgba(218, 180, 157, 1)" stroke-width="1.5"></path><path d="M245.66 518.87L365.35 539.42" stroke="rgba(218, 180, 157, 1)" stroke-width="1.5"></path><path d="M223.19 701.19L223.19 701.19" stroke="rgba(218, 180, 157, 1)" stroke-width="1.5"></path><path d="M223.19 701.19L245.66 518.87" stroke="rgba(218, 180, 157, 1)" stroke-width="1.5"></path><path d="M223.19 701.19L407.52 708.3" stroke="rgba(218, 180, 157, 1)" stroke-width="1.5"></path><path d="M391.28 366.39L391.28 366.39" stroke="rgba(218, 180, 157, 1)" stroke-width="1.5"></path><path d="M391.28 366.39L528.62 366.86" stroke="rgba(218, 180, 157, 1)" stroke-width="1.5"></path><path d="M391.28 366.39L365.35 539.42" stroke="rgba(218, 180, 157, 1)" stroke-width="1.5"></path><path d="M391.28 366.39L504.38 537.55" stroke="rgba(218, 180, 157, 1)" stroke-width="1.5"></path><path d="M391.28 366.39L245.66 518.87" stroke="rgba(218, 180, 157, 1)" stroke-width="1.5"></path><path d="M391.28 366.39L683.92 410.33" stroke="rgba(218, 180, 157, 1)" stroke-width="1.5"></path><path d="M365.35 539.42L365.35 539.42" stroke="rgba(218, 180, 157, 1)" stroke-width="1.5"></path><path d="M365.35 539.42L504.38 537.55" stroke="rgba(218, 180, 157, 1)" stroke-width="1.5"></path><path d="M407.52 708.3L407.52 708.3" stroke="rgba(218, 180, 157, 1)" stroke-width="1.5"></path><path d="M407.52 708.3L540.82 644.45" stroke="rgba(218, 180, 157, 1)" stroke-width="1.5"></path><path d="M407.52 708.3L365.35 539.42" stroke="rgba(218, 180, 157, 1)" stroke-width="1.5"></path><path d="M528.62 366.86L528.62 366.86" stroke="rgba(218, 180, 157, 1)" stroke-width="1.5"></path><path d="M528.62 366.86L683.92 410.33" stroke="rgba(218, 180, 157, 1)" stroke-width="1.5"></path><path d="M528.62 366.86L504.38 537.55" stroke="rgba(218, 180, 157, 1)" stroke-width="1.5"></path><path d="M504.38 537.55L504.38 537.55" stroke="rgba(218, 180, 157, 1)" stroke-width="1.5"></path><path d="M504.38 537.55L540.82 644.45" stroke="rgba(218, 180, 157, 1)" stroke-width="1.5"></path><path d="M540.82 644.45L540.82 644.45" stroke="rgba(218, 180, 157, 1)" stroke-width="1.5"></path><path d="M540.82 644.45L709.83 682.93" stroke="rgba(218, 180, 157, 1)" stroke-width="1.5"></path><path d="M702.94 246.46L702.94 246.46" stroke="rgba(218, 180, 157, 1)" stroke-width="1.5"></path><path d="M702.94 246.46L817.93 195.3" stroke="rgba(218, 180, 157, 1)" stroke-width="1.5"></path><path d="M702.94 246.46L796.95 351.12" stroke="rgba(218, 180, 157, 1)" stroke-width="1.5"></path><path d="M702.94 246.46L683.92 410.33" stroke="rgba(218, 180, 157, 1)" stroke-width="1.5"></path><path d="M702.94 246.46L528.62 366.86" stroke="rgba(218, 180, 157, 1)" stroke-width="1.5"></path><path d="M702.94 246.46L943.62 227.82" stroke="rgba(218, 180, 157, 1)" stroke-width="1.5"></path><path d="M702.94 246.46L705.12 498.37" stroke="rgba(218, 180, 157, 1)" stroke-width="1.5"></path><path d="M683.92 410.33L683.92 410.33" stroke="rgba(218, 180, 157, 1)" stroke-width="1.5"></path><path d="M683.92 410.33L705.12 498.37" stroke="rgba(218, 180, 157, 1)" stroke-width="1.5"></path><path d="M683.92 410.33L796.95 351.12" stroke="rgba(218, 180, 157, 1)" stroke-width="1.5"></path><path d="M705.12 498.37L705.12 498.37" stroke="rgba(218, 180, 157, 1)" stroke-width="1.5"></path><path d="M705.12 498.37L844.63 562.38" stroke="rgba(218, 180, 157, 1)" stroke-width="1.5"></path><path d="M709.83 682.93L709.83 682.93" stroke="rgba(218, 180, 157, 1)" stroke-width="1.5"></path><path d="M709.83 682.93L834.69 707.6" stroke="rgba(218, 180, 157, 1)" stroke-width="1.5"></path><path d="M709.83 682.93L844.63 562.38" stroke="rgba(218, 180, 157, 1)" stroke-width="1.5"></path><path d="M709.83 682.93L705.12 498.37" stroke="rgba(218, 180, 157, 1)" stroke-width="1.5"></path><path d="M817.93 195.3L817.93 195.3" stroke="rgba(218, 180, 157, 1)" stroke-width="1.5"></path><path d="M817.93 195.3L943.62 227.82" stroke="rgba(218, 180, 157, 1)" stroke-width="1.5"></path><path d="M817.93 195.3L796.95 351.12" stroke="rgba(218, 180, 157, 1)" stroke-width="1.5"></path><path d="M796.95 351.12L796.95 351.12" stroke="rgba(218, 180, 157, 1)" stroke-width="1.5"></path><path d="M796.95 351.12L960.62 402.61" stroke="rgba(218, 180, 157, 1)" stroke-width="1.5"></path><path d="M844.63 562.38L844.63 562.38" stroke="rgba(218, 180, 157, 1)" stroke-width="1.5"></path><path d="M844.63 562.38L969.35 492.84" stroke="rgba(218, 180, 157, 1)" stroke-width="1.5"></path><path d="M844.63 562.38L834.69 707.6" stroke="rgba(218, 180, 157, 1)" stroke-width="1.5"></path><path d="M834.69 707.6L834.69 707.6" stroke="rgba(218, 180, 157, 1)" stroke-width="1.5"></path><path d="M834.69 707.6L985.66 690.98" stroke="rgba(218, 180, 157, 1)" stroke-width="1.5"></path><path d="M834.69 707.6L705.12 498.37" stroke="rgba(218, 180, 157, 1)" stroke-width="1.5"></path><path d="M834.69 707.6L969.35 492.84" stroke="rgba(218, 180, 157, 1)" stroke-width="1.5"></path><path d="M834.69 707.6L540.82 644.45" stroke="rgba(218, 180, 157, 1)" stroke-width="1.5"></path><path d="M945.3 -87.76L945.3 -87.76" stroke="rgba(218, 180, 157, 1)" stroke-width="1.5"></path><path d="M945.3 -87.76L968.24 44.66" stroke="rgba(218, 180, 157, 1)" stroke-width="1.5"></path><path d="M945.3 -87.76L1121.77 -57.12" stroke="rgba(218, 180, 157, 1)" stroke-width="1.5"></path><path d="M945.3 -87.76L1094.82 108.9" stroke="rgba(218, 180, 157, 1)" stroke-width="1.5"></path><path d="M945.3 -87.76L817.93 195.3" stroke="rgba(218, 180, 157, 1)" stroke-width="1.5"></path><path d="M945.3 -87.76L943.62 227.82" stroke="rgba(218, 180, 157, 1)" stroke-width="1.5"></path><path d="M945.3 -87.76L1151.91 216.83" stroke="rgba(218, 180, 157, 1)" stroke-width="1.5"></path><path d="M968.24 44.66L968.24 44.66" stroke="rgba(218, 180, 157, 1)" stroke-width="1.5"></path><path d="M968.24 44.66L1094.82 108.9" stroke="rgba(218, 180, 157, 1)" stroke-width="1.5"></path><path d="M943.62 227.82L943.62 227.82" stroke="rgba(218, 180, 157, 1)" stroke-width="1.5"></path><path d="M943.62 227.82L960.62 402.61" stroke="rgba(218, 180, 157, 1)" stroke-width="1.5"></path><path d="M960.62 402.61L960.62 402.61" stroke="rgba(218, 180, 157, 1)" stroke-width="1.5"></path><path d="M960.62 402.61L969.35 492.84" stroke="rgba(218, 180, 157, 1)" stroke-width="1.5"></path><path d="M960.62 402.61L1129.65 353.28" stroke="rgba(218, 180, 157, 1)" stroke-width="1.5"></path><path d="M960.62 402.61L844.63 562.38" stroke="rgba(218, 180, 157, 1)" stroke-width="1.5"></path><path d="M960.62 402.61L1146.25 511.17" stroke="rgba(218, 180, 157, 1)" stroke-width="1.5"></path><path d="M969.35 492.84L969.35 492.84" stroke="rgba(218, 180, 157, 1)" stroke-width="1.5"></path><path d="M969.35 492.84L1146.25 511.17" stroke="rgba(218, 180, 157, 1)" stroke-width="1.5"></path><path d="M969.35 492.84L985.66 690.98" stroke="rgba(218, 180, 157, 1)" stroke-width="1.5"></path><path d="M969.35 492.84L1129.65 353.28" stroke="rgba(218, 180, 157, 1)" stroke-width="1.5"></path><path d="M985.66 690.98L985.66 690.98" stroke="rgba(218, 180, 157, 1)" stroke-width="1.5"></path><path d="M985.66 690.98L1144.39 705.36" stroke="rgba(218, 180, 157, 1)" stroke-width="1.5"></path><path d="M985.66 690.98L844.63 562.38" stroke="rgba(218, 180, 157, 1)" stroke-width="1.5"></path><path d="M985.66 690.98L1146.25 511.17" stroke="rgba(218, 180, 157, 1)" stroke-width="1.5"></path><path d="M985.66 690.98L1250.34 660.64" stroke="rgba(218, 180, 157, 1)" stroke-width="1.5"></path><path d="M1121.77 -57.12L1121.77 -57.12" stroke="rgba(218, 180, 157, 1)" stroke-width="1.5"></path><path d="M1121.77 -57.12L1094.82 108.9" stroke="rgba(218, 180, 157, 1)" stroke-width="1.5"></path><path d="M1121.77 -57.12L968.24 44.66" stroke="rgba(218, 180, 157, 1)" stroke-width="1.5"></path><path d="M1121.77 -57.12L1311.39 -48.6" stroke="rgba(218, 180, 157, 1)" stroke-width="1.5"></path><path d="M1094.82 108.9L1094.82 108.9" stroke="rgba(218, 180, 157, 1)" stroke-width="1.5"></path><path d="M1094.82 108.9L1151.91 216.83" stroke="rgba(218, 180, 157, 1)" stroke-width="1.5"></path><path d="M1094.82 108.9L1282.6 88.26" stroke="rgba(218, 180, 157, 1)" stroke-width="1.5"></path><path d="M1151.91 216.83L1151.91 216.83" stroke="rgba(218, 180, 157, 1)" stroke-width="1.5"></path><path d="M1151.91 216.83L1129.65 353.28" stroke="rgba(218, 180, 157, 1)" stroke-width="1.5"></path><path d="M1151.91 216.83L1238.53 356.53" stroke="rgba(218, 180, 157, 1)" stroke-width="1.5"></path><path d="M1151.91 216.83L1282.6 88.26" stroke="rgba(218, 180, 157, 1)" stroke-width="1.5"></path><path d="M1151.91 216.83L943.62 227.82" stroke="rgba(218, 180, 157, 1)" stroke-width="1.5"></path><path d="M1129.65 353.28L1129.65 353.28" stroke="rgba(218, 180, 157, 1)" stroke-width="1.5"></path><path d="M1129.65 353.28L1238.53 356.53" stroke="rgba(218, 180, 157, 1)" stroke-width="1.5"></path><path d="M1129.65 353.28L1146.25 511.17" stroke="rgba(218, 180, 157, 1)" stroke-width="1.5"></path><path d="M1129.65 353.28L943.62 227.82" stroke="rgba(218, 180, 157, 1)" stroke-width="1.5"></path><path d="M1146.25 511.17L1146.25 511.17" stroke="rgba(218, 180, 157, 1)" stroke-width="1.5"></path><path d="M1146.25 511.17L1238.53 356.53" stroke="rgba(218, 180, 157, 1)" stroke-width="1.5"></path><path d="M1146.25 511.17L1250.34 660.64" stroke="rgba(218, 180, 157, 1)" stroke-width="1.5"></path><path d="M1146.25 511.17L1144.39 705.36" stroke="rgba(218, 180, 157, 1)" stroke-width="1.5"></path><path d="M1144.39 705.36L1144.39 705.36" stroke="rgba(218, 180, 157, 1)" stroke-width="1.5"></path><path d="M1144.39 705.36L1250.34 660.64" stroke="rgba(218, 180, 157, 1)" stroke-width="1.5"></path><path d="M1311.39 -48.6L1311.39 -48.6" stroke="rgba(218, 180, 157, 1)" stroke-width="1.5"></path><path d="M1311.39 -48.6L1437.25 -73.02" stroke="rgba(218, 180, 157, 1)" stroke-width="1.5"></path><path d="M1311.39 -48.6L1282.6 88.26" stroke="rgba(218, 180, 157, 1)" stroke-width="1.5"></path><path d="M1282.6 88.26L1282.6 88.26" stroke="rgba(218, 180, 157, 1)" stroke-width="1.5"></path><path d="M1282.6 88.26L1411.11 75.5" stroke="rgba(218, 180, 157, 1)" stroke-width="1.5"></path><path d="M1238.53 356.53L1238.53 356.53" stroke="rgba(218, 180, 157, 1)" stroke-width="1.5"></path><path d="M1250.34 660.64L1250.34 660.64" stroke="rgba(218, 180, 157, 1)" stroke-width="1.5"></path><path d="M1250.34 660.64L1441.53 665.41" stroke="rgba(218, 180, 157, 1)" stroke-width="1.5"></path><path d="M1250.34 660.64L1398.19 516.01" stroke="rgba(218, 180, 157, 1)" stroke-width="1.5"></path><path d="M1250.34 660.64L1395.01 394.44" stroke="rgba(218, 180, 157, 1)" stroke-width="1.5"></path><path d="M1437.25 -73.02L1437.25 -73.02" stroke="rgba(218, 180, 157, 1)" stroke-width="1.5"></path><path d="M1437.25 -73.02L1574.8 -38.49" stroke="rgba(218, 180, 157, 1)" stroke-width="1.5"></path><path d="M1437.25 -73.02L1411.11 75.5" stroke="rgba(218, 180, 157, 1)" stroke-width="1.5"></path><path d="M1437.25 -73.02L1282.6 88.26" stroke="rgba(218, 180, 157, 1)" stroke-width="1.5"></path><path d="M1411.11 75.5L1411.11 75.5" stroke="rgba(218, 180, 157, 1)" stroke-width="1.5"></path><path d="M1411.11 75.5L1462.22 223.34" stroke="rgba(218, 180, 157, 1)" stroke-width="1.5"></path><path d="M1462.22 223.34L1462.22 223.34" stroke="rgba(218, 180, 157, 1)" stroke-width="1.5"></path><path d="M1462.22 223.34L1561.31 248.32" stroke="rgba(218, 180, 157, 1)" stroke-width="1.5"></path><path d="M1395.01 394.44L1395.01 394.44" stroke="rgba(218, 180, 157, 1)" stroke-width="1.5"></path><path d="M1395.01 394.44L1398.19 516.01" stroke="rgba(218, 180, 157, 1)" stroke-width="1.5"></path><path d="M1395.01 394.44L1238.53 356.53" stroke="rgba(218, 180, 157, 1)" stroke-width="1.5"></path><path d="M1398.19 516.01L1398.19 516.01" stroke="rgba(218, 180, 157, 1)" stroke-width="1.5"></path><path d="M1398.19 516.01L1441.53 665.41" stroke="rgba(218, 180, 157, 1)" stroke-width="1.5"></path><path d="M1398.19 516.01L1563.79 549.32" stroke="rgba(218, 180, 157, 1)" stroke-width="1.5"></path><path d="M1441.53 665.41L1441.53 665.41" stroke="rgba(218, 180, 157, 1)" stroke-width="1.5"></path><path d="M1441.53 665.41L1602.26 703.1" stroke="rgba(218, 180, 157, 1)" stroke-width="1.5"></path><path d="M1574.8 -38.49L1574.8 -38.49" stroke="rgba(218, 180, 157, 1)" stroke-width="1.5"></path><path d="M1574.8 -38.49L1593.01 106.05" stroke="rgba(218, 180, 157, 1)" stroke-width="1.5"></path><path d="M1574.8 -38.49L1411.11 75.5" stroke="rgba(218, 180, 157, 1)" stroke-width="1.5"></path><path d="M1593.01 106.05L1593.01 106.05" stroke="rgba(218, 180, 157, 1)" stroke-width="1.5"></path><path d="M1593.01 106.05L1561.31 248.32" stroke="rgba(218, 180, 157, 1)" stroke-width="1.5"></path><path d="M1593.01 106.05L1462.22 223.34" stroke="rgba(218, 180, 157, 1)" stroke-width="1.5"></path><path d="M1593.01 106.05L1411.11 75.5" stroke="rgba(218, 180, 157, 1)" stroke-width="1.5"></path><path d="M1593.01 106.05L1574.92 339.13" stroke="rgba(218, 180, 157, 1)" stroke-width="1.5"></path><path d="M1593.01 106.05L1437.25 -73.02" stroke="rgba(218, 180, 157, 1)" stroke-width="1.5"></path><path d="M1561.31 248.32L1561.31 248.32" stroke="rgba(218, 180, 157, 1)" stroke-width="1.5"></path><path d="M1561.31 248.32L1574.92 339.13" stroke="rgba(218, 180, 157, 1)" stroke-width="1.5"></path><path d="M1574.92 339.13L1574.92 339.13" stroke="rgba(218, 180, 157, 1)" stroke-width="1.5"></path><path d="M1574.92 339.13L1462.22 223.34" stroke="rgba(218, 180, 157, 1)" stroke-width="1.5"></path><path d="M1563.79 549.32L1563.79 549.32" stroke="rgba(218, 180, 157, 1)" stroke-width="1.5"></path><path d="M1563.79 549.32L1602.26 703.1" stroke="rgba(218, 180, 157, 1)" stroke-width="1.5"></path><path d="M1563.79 549.32L1441.53 665.41" stroke="rgba(218, 180, 157, 1)" stroke-width="1.5"></path><path d="M1563.79 549.32L1574.92 339.13" stroke="rgba(218, 180, 157, 1)" stroke-width="1.5"></path><path d="M1602.26 703.1L1602.26 703.1" stroke="rgba(218, 180, 157, 1)" stroke-width="1.5"></path><path d="M1602.26 703.1L1398.19 516.01" stroke="rgba(218, 180, 157, 1)" stroke-width="1.5"></path><path d="M1602.26 703.1L1250.34 660.64" stroke="rgba(218, 180, 157, 1)" stroke-width="1.5"></path><circle r="5" cx="-58.8" cy="529.58" fill="rgba(218, 180, 157, 1)"></circle><circle r="5" cx="-78.04" cy="696.4" fill="rgba(218, 180, 157, 1)"></circle><circle r="5" cx="52.86" cy="354.89" fill="rgba(218, 180, 157, 1)"></circle><circle r="5" cx="76.19" cy="500.84" fill="rgba(218, 180, 157, 1)"></circle><circle r="5" cx="47.78" cy="637.97" fill="rgba(218, 180, 157, 1)"></circle><circle r="5" cx="257.38" cy="380.01" fill="rgba(218, 180, 157, 1)"></circle><circle r="5" cx="245.66" cy="518.87" fill="rgba(218, 180, 157, 1)"></circle><circle r="5" cx="223.19" cy="701.19" fill="rgba(218, 180, 157, 1)"></circle><circle r="5" cx="391.28" cy="366.39" fill="rgba(218, 180, 157, 1)"></circle><circle r="5" cx="365.35" cy="539.42" fill="rgba(218, 180, 157, 1)"></circle><circle r="5" cx="407.52" cy="708.3" fill="rgba(218, 180, 157, 1)"></circle><circle r="5" cx="528.62" cy="366.86" fill="rgba(218, 180, 157, 1)"></circle><circle r="5" cx="504.38" cy="537.55" fill="rgba(218, 180, 157, 1)"></circle><circle r="5" cx="540.82" cy="644.45" fill="rgba(218, 180, 157, 1)"></circle><circle r="5" cx="702.94" cy="246.46" fill="rgba(218, 180, 157, 1)"></circle><circle r="5" cx="683.92" cy="410.33" fill="rgba(218, 180, 157, 1)"></circle><circle r="5" cx="705.12" cy="498.37" fill="rgba(218, 180, 157, 1)"></circle><circle r="5" cx="709.83" cy="682.93" fill="rgba(218, 180, 157, 1)"></circle><circle r="5" cx="817.93" cy="195.3" fill="rgba(218, 180, 157, 1)"></circle><circle r="5" cx="796.95" cy="351.12" fill="rgba(218, 180, 157, 1)"></circle><circle r="5" cx="844.63" cy="562.38" fill="rgba(218, 180, 157, 1)"></circle><circle r="5" cx="834.69" cy="707.6" fill="rgba(218, 180, 157, 1)"></circle><circle r="5" cx="945.3" cy="-87.76" fill="rgba(218, 180, 157, 1)"></circle><circle r="5" cx="968.24" cy="44.66" fill="rgba(218, 180, 157, 1)"></circle><circle r="5" cx="943.62" cy="227.82" fill="rgba(218, 180, 157, 1)"></circle><circle r="5" cx="960.62" cy="402.61" fill="rgba(218, 180, 157, 1)"></circle><circle r="5" cx="969.35" cy="492.84" fill="rgba(218, 180, 157, 1)"></circle><circle r="5" cx="985.66" cy="690.98" fill="rgba(218, 180, 157, 1)"></circle><circle r="5" cx="1121.77" cy="-57.12" fill="rgba(218, 180, 157, 1)"></circle><circle r="5" cx="1094.82" cy="108.9" fill="rgba(218, 180, 157, 1)"></circle><circle r="5" cx="1151.91" cy="216.83" fill="rgba(218, 180, 157, 1)"></circle><circle r="5" cx="1129.65" cy="353.28" fill="rgba(218, 180, 157, 1)"></circle><circle r="5" cx="1146.25" cy="511.17" fill="rgba(218, 180, 157, 1)"></circle><circle r="5" cx="1144.39" cy="705.36" fill="rgba(218, 180, 157, 1)"></circle><circle r="5" cx="1311.39" cy="-48.6" fill="rgba(218, 180, 157, 1)"></circle><circle r="5" cx="1282.6" cy="88.26" fill="rgba(218, 180, 157, 1)"></circle><circle r="5" cx="1238.53" cy="356.53" fill="rgba(218, 180, 157, 1)"></circle><circle r="5" cx="1250.34" cy="660.64" fill="rgba(218, 180, 157, 1)"></circle><circle r="5" cx="1437.25" cy="-73.02" fill="rgba(218, 180, 157, 1)"></circle><circle r="5" cx="1411.11" cy="75.5" fill="rgba(218, 180, 157, 1)"></circle><circle r="5" cx="1462.22" cy="223.34" fill="rgba(218, 180, 157, 1)"></circle><circle r="5" cx="1395.01" cy="394.44" fill="rgba(218, 180, 157, 1)"></circle><circle r="5" cx="1398.19" cy="516.01" fill="rgba(218, 180, 157, 1)"></circle><circle r="5" cx="1441.53" cy="665.41" fill="rgba(218, 180, 157, 1)"></circle><circle r="5" cx="1574.8" cy="-38.49" fill="rgba(218, 180, 157, 1)"></circle><circle r="5" cx="1593.01" cy="106.05" fill="rgba(218, 180, 157, 1)"></circle><circle r="5" cx="1561.31" cy="248.32" fill="rgba(218, 180, 157, 1)"></circle><circle r="5" cx="1574.92" cy="339.13" fill="rgba(218, 180, 157, 1)"></circle><circle r="5" cx="1563.79" cy="549.32" fill="rgba(218, 180, 157, 1)"></circle><circle r="5" cx="1602.26" cy="703.1" fill="rgba(218, 180, 157, 1)"></circle><path d="M967.26 531.16L967.26 531.16" stroke="hsl(23.399999999999977, 42.7%, 48.9%)" stroke-width="1.5"></path><path d="M967.26 531.16L969.58 667.37" stroke="hsl(23.399999999999977, 42.7%, 48.9%)" stroke-width="1.5"></path><path d="M967.26 531.16L1121.32 561.66" stroke="hsl(23.399999999999977, 42.7%, 48.9%)" stroke-width="1.5"></path><path d="M967.26 531.16L806.08 516.19" stroke="hsl(23.399999999999977, 42.7%, 48.9%)" stroke-width="1.5"></path><path d="M967.26 531.16L942.24 369.32" stroke="hsl(23.399999999999977, 42.7%, 48.9%)" stroke-width="1.5"></path><path d="M967.26 531.16L1095.85 656.39" stroke="hsl(23.399999999999977, 42.7%, 48.9%)" stroke-width="1.5"></path><path d="M969.58 667.37L969.58 667.37" stroke="hsl(23.399999999999977, 42.7%, 48.9%)" stroke-width="1.5"></path><path d="M969.58 667.37L1095.85 656.39" stroke="hsl(23.399999999999977, 42.7%, 48.9%)" stroke-width="1.5"></path><path d="M969.58 667.37L800.53 652.78" stroke="hsl(23.399999999999977, 42.7%, 48.9%)" stroke-width="1.5"></path><path d="M969.58 667.37L1121.32 561.66" stroke="hsl(23.399999999999977, 42.7%, 48.9%)" stroke-width="1.5"></path><path d="M969.58 667.37L806.08 516.19" stroke="hsl(23.399999999999977, 42.7%, 48.9%)" stroke-width="1.5"></path><path d="M1121.32 561.66L1121.32 561.66" stroke="hsl(23.399999999999977, 42.7%, 48.9%)" stroke-width="1.5"></path><path d="M1121.32 561.66L1095.85 656.39" stroke="hsl(23.399999999999977, 42.7%, 48.9%)" stroke-width="1.5"></path><path d="M1121.32 561.66L1252.2 650.12" stroke="hsl(23.399999999999977, 42.7%, 48.9%)" stroke-width="1.5"></path><path d="M1237.79 58.32L1237.79 58.32" stroke="hsl(23.399999999999977, 42.7%, 48.9%)" stroke-width="1.5"></path><path d="M1237.79 58.32L1286.37 -49.42" stroke="hsl(23.399999999999977, 42.7%, 48.9%)" stroke-width="1.5"></path><path d="M1237.79 58.32L1122.11 216.83" stroke="hsl(23.399999999999977, 42.7%, 48.9%)" stroke-width="1.5"></path><path d="M1237.79 58.32L1431.97 108.71" stroke="hsl(23.399999999999977, 42.7%, 48.9%)" stroke-width="1.5"></path><path d="M1237.79 58.32L1430.36 -110.28" stroke="hsl(23.399999999999977, 42.7%, 48.9%)" stroke-width="1.5"></path><path d="M1237.79 58.32L1399.74 259.29" stroke="hsl(23.399999999999977, 42.7%, 48.9%)" stroke-width="1.5"></path><path d="M1237.79 58.32L1142.25 357.12" stroke="hsl(23.399999999999977, 42.7%, 48.9%)" stroke-width="1.5"></path><path d="M-44.11 552.13L-44.11 552.13" stroke="hsl(23.399999999999977, 42.7%, 48.9%)" stroke-width="1.5"></path><path d="M-44.11 552.13L-45.38 646.09" stroke="hsl(23.399999999999977, 42.7%, 48.9%)" stroke-width="1.5"></path><path d="M-44.11 552.13L87.71 551.71" stroke="hsl(23.399999999999977, 42.7%, 48.9%)" stroke-width="1.5"></path><path d="M-44.11 552.13L112.46 706.5" stroke="hsl(23.399999999999977, 42.7%, 48.9%)" stroke-width="1.5"></path><path d="M-45.38 646.09L-45.38 646.09" stroke="hsl(23.399999999999977, 42.7%, 48.9%)" stroke-width="1.5"></path><path d="M-45.38 646.09L87.71 551.71" stroke="hsl(23.399999999999977, 42.7%, 48.9%)" stroke-width="1.5"></path><path d="M-45.38 646.09L112.46 706.5" stroke="hsl(23.399999999999977, 42.7%, 48.9%)" stroke-width="1.5"></path><path d="M-45.38 646.09L212.36 651.18" stroke="hsl(23.399999999999977, 42.7%, 48.9%)" stroke-width="1.5"></path><path d="M87.71 551.71L87.71 551.71" stroke="hsl(23.399999999999977, 42.7%, 48.9%)" stroke-width="1.5"></path><path d="M87.71 551.71L206 501.65" stroke="hsl(23.399999999999977, 42.7%, 48.9%)" stroke-width="1.5"></path><path d="M112.46 706.5L112.46 706.5" stroke="hsl(23.399999999999977, 42.7%, 48.9%)" stroke-width="1.5"></path><path d="M112.46 706.5L212.36 651.18" stroke="hsl(23.399999999999977, 42.7%, 48.9%)" stroke-width="1.5"></path><path d="M112.46 706.5L87.71 551.71" stroke="hsl(23.399999999999977, 42.7%, 48.9%)" stroke-width="1.5"></path><path d="M112.46 706.5L206 501.65" stroke="hsl(23.399999999999977, 42.7%, 48.9%)" stroke-width="1.5"></path><path d="M206 501.65L206 501.65" stroke="hsl(23.399999999999977, 42.7%, 48.9%)" stroke-width="1.5"></path><path d="M206 501.65L212.36 651.18" stroke="hsl(23.399999999999977, 42.7%, 48.9%)" stroke-width="1.5"></path><path d="M206 501.65L-44.11 552.13" stroke="hsl(23.399999999999977, 42.7%, 48.9%)" stroke-width="1.5"></path><path d="M206 501.65L392.86 703.06" stroke="hsl(23.399999999999977, 42.7%, 48.9%)" stroke-width="1.5"></path><path d="M212.36 651.18L212.36 651.18" stroke="hsl(23.399999999999977, 42.7%, 48.9%)" stroke-width="1.5"></path><path d="M212.36 651.18L87.71 551.71" stroke="hsl(23.399999999999977, 42.7%, 48.9%)" stroke-width="1.5"></path><path d="M212.36 651.18L392.86 703.06" stroke="hsl(23.399999999999977, 42.7%, 48.9%)" stroke-width="1.5"></path><path d="M392.86 703.06L392.86 703.06" stroke="hsl(23.399999999999977, 42.7%, 48.9%)" stroke-width="1.5"></path><path d="M392.86 703.06L544.87 522.44" stroke="hsl(23.399999999999977, 42.7%, 48.9%)" stroke-width="1.5"></path><path d="M392.86 703.06L112.46 706.5" stroke="hsl(23.399999999999977, 42.7%, 48.9%)" stroke-width="1.5"></path><path d="M543.12 405.06L543.12 405.06" stroke="hsl(23.399999999999977, 42.7%, 48.9%)" stroke-width="1.5"></path><path d="M543.12 405.06L544.87 522.44" stroke="hsl(23.399999999999977, 42.7%, 48.9%)" stroke-width="1.5"></path><path d="M544.87 522.44L544.87 522.44" stroke="hsl(23.399999999999977, 42.7%, 48.9%)" stroke-width="1.5"></path><path d="M544.87 522.44L679.3 496.51" stroke="hsl(23.399999999999977, 42.7%, 48.9%)" stroke-width="1.5"></path><path d="M544.87 522.44L699.47 411.99" stroke="hsl(23.399999999999977, 42.7%, 48.9%)" stroke-width="1.5"></path><path d="M699.47 411.99L699.47 411.99" stroke="hsl(23.399999999999977, 42.7%, 48.9%)" stroke-width="1.5"></path><path d="M699.47 411.99L679.3 496.51" stroke="hsl(23.399999999999977, 42.7%, 48.9%)" stroke-width="1.5"></path><path d="M699.47 411.99L806.08 516.19" stroke="hsl(23.399999999999977, 42.7%, 48.9%)" stroke-width="1.5"></path><path d="M699.47 411.99L843.81 372.05" stroke="hsl(23.399999999999977, 42.7%, 48.9%)" stroke-width="1.5"></path><path d="M699.47 411.99L543.12 405.06" stroke="hsl(23.399999999999977, 42.7%, 48.9%)" stroke-width="1.5"></path><path d="M679.3 496.51L679.3 496.51" stroke="hsl(23.399999999999977, 42.7%, 48.9%)" stroke-width="1.5"></path><path d="M679.3 496.51L806.08 516.19" stroke="hsl(23.399999999999977, 42.7%, 48.9%)" stroke-width="1.5"></path><path d="M679.3 496.51L543.12 405.06" stroke="hsl(23.399999999999977, 42.7%, 48.9%)" stroke-width="1.5"></path><path d="M694.24 708.33L694.24 708.33" stroke="hsl(23.399999999999977, 42.7%, 48.9%)" stroke-width="1.5"></path><path d="M694.24 708.33L800.53 652.78" stroke="hsl(23.399999999999977, 42.7%, 48.9%)" stroke-width="1.5"></path><path d="M694.24 708.33L679.3 496.51" stroke="hsl(23.399999999999977, 42.7%, 48.9%)" stroke-width="1.5"></path><path d="M694.24 708.33L806.08 516.19" stroke="hsl(23.399999999999977, 42.7%, 48.9%)" stroke-width="1.5"></path><path d="M694.24 708.33L544.87 522.44" stroke="hsl(23.399999999999977, 42.7%, 48.9%)" stroke-width="1.5"></path><path d="M843.81 372.05L843.81 372.05" stroke="hsl(23.399999999999977, 42.7%, 48.9%)" stroke-width="1.5"></path><path d="M843.81 372.05L942.24 369.32" stroke="hsl(23.399999999999977, 42.7%, 48.9%)" stroke-width="1.5"></path><path d="M843.81 372.05L806.08 516.19" stroke="hsl(23.399999999999977, 42.7%, 48.9%)" stroke-width="1.5"></path><path d="M843.81 372.05L967.26 531.16" stroke="hsl(23.399999999999977, 42.7%, 48.9%)" stroke-width="1.5"></path><path d="M843.81 372.05L679.3 496.51" stroke="hsl(23.399999999999977, 42.7%, 48.9%)" stroke-width="1.5"></path><path d="M843.81 372.05L800.53 652.78" stroke="hsl(23.399999999999977, 42.7%, 48.9%)" stroke-width="1.5"></path><path d="M806.08 516.19L806.08 516.19" stroke="hsl(23.399999999999977, 42.7%, 48.9%)" stroke-width="1.5"></path><path d="M806.08 516.19L800.53 652.78" stroke="hsl(23.399999999999977, 42.7%, 48.9%)" stroke-width="1.5"></path><path d="M800.53 652.78L800.53 652.78" stroke="hsl(23.399999999999977, 42.7%, 48.9%)" stroke-width="1.5"></path><path d="M942.24 369.32L942.24 369.32" stroke="hsl(23.399999999999977, 42.7%, 48.9%)" stroke-width="1.5"></path><path d="M942.24 369.32L806.08 516.19" stroke="hsl(23.399999999999977, 42.7%, 48.9%)" stroke-width="1.5"></path><path d="M1122.11 216.83L1122.11 216.83" stroke="hsl(23.399999999999977, 42.7%, 48.9%)" stroke-width="1.5"></path><path d="M1122.11 216.83L1142.25 357.12" stroke="hsl(23.399999999999977, 42.7%, 48.9%)" stroke-width="1.5"></path><path d="M1122.11 216.83L1248.31 404.32" stroke="hsl(23.399999999999977, 42.7%, 48.9%)" stroke-width="1.5"></path><path d="M1122.11 216.83L942.24 369.32" stroke="hsl(23.399999999999977, 42.7%, 48.9%)" stroke-width="1.5"></path><path d="M1122.11 216.83L1399.74 259.29" stroke="hsl(23.399999999999977, 42.7%, 48.9%)" stroke-width="1.5"></path><path d="M1122.11 216.83L1286.37 -49.42" stroke="hsl(23.399999999999977, 42.7%, 48.9%)" stroke-width="1.5"></path><path d="M1142.25 357.12L1142.25 357.12" stroke="hsl(23.399999999999977, 42.7%, 48.9%)" stroke-width="1.5"></path><path d="M1142.25 357.12L1248.31 404.32" stroke="hsl(23.399999999999977, 42.7%, 48.9%)" stroke-width="1.5"></path><path d="M1095.85 656.39L1095.85 656.39" stroke="hsl(23.399999999999977, 42.7%, 48.9%)" stroke-width="1.5"></path><path d="M1095.85 656.39L1252.2 650.12" stroke="hsl(23.399999999999977, 42.7%, 48.9%)" stroke-width="1.5"></path><path d="M1095.85 656.39L1290.78 533.07" stroke="hsl(23.399999999999977, 42.7%, 48.9%)" stroke-width="1.5"></path><path d="M1286.37 -49.42L1286.37 -49.42" stroke="hsl(23.399999999999977, 42.7%, 48.9%)" stroke-width="1.5"></path><path d="M1286.37 -49.42L1430.36 -110.28" stroke="hsl(23.399999999999977, 42.7%, 48.9%)" stroke-width="1.5"></path><path d="M1286.37 -49.42L1431.97 108.71" stroke="hsl(23.399999999999977, 42.7%, 48.9%)" stroke-width="1.5"></path><path d="M1286.37 -49.42L1558.56 -111.38" stroke="hsl(23.399999999999977, 42.7%, 48.9%)" stroke-width="1.5"></path><path d="M1248.31 404.32L1248.31 404.32" stroke="hsl(23.399999999999977, 42.7%, 48.9%)" stroke-width="1.5"></path><path d="M1248.31 404.32L1290.78 533.07" stroke="hsl(23.399999999999977, 42.7%, 48.9%)" stroke-width="1.5"></path><path d="M1248.31 404.32L1416.01 395.12" stroke="hsl(23.399999999999977, 42.7%, 48.9%)" stroke-width="1.5"></path><path d="M1248.31 404.32L1121.32 561.66" stroke="hsl(23.399999999999977, 42.7%, 48.9%)" stroke-width="1.5"></path><path d="M1248.31 404.32L1399.74 259.29" stroke="hsl(23.399999999999977, 42.7%, 48.9%)" stroke-width="1.5"></path><path d="M1290.78 533.07L1290.78 533.07" stroke="hsl(23.399999999999977, 42.7%, 48.9%)" stroke-width="1.5"></path><path d="M1290.78 533.07L1252.2 650.12" stroke="hsl(23.399999999999977, 42.7%, 48.9%)" stroke-width="1.5"></path><path d="M1252.2 650.12L1252.2 650.12" stroke="hsl(23.399999999999977, 42.7%, 48.9%)" stroke-width="1.5"></path><path d="M1252.2 650.12L1396.04 689.82" stroke="hsl(23.399999999999977, 42.7%, 48.9%)" stroke-width="1.5"></path><path d="M1430.36 -110.28L1430.36 -110.28" stroke="hsl(23.399999999999977, 42.7%, 48.9%)" stroke-width="1.5"></path><path d="M1430.36 -110.28L1558.56 -111.38" stroke="hsl(23.399999999999977, 42.7%, 48.9%)" stroke-width="1.5"></path><path d="M1430.36 -110.28L1431.97 108.71" stroke="hsl(23.399999999999977, 42.7%, 48.9%)" stroke-width="1.5"></path><path d="M1430.36 -110.28L1588.88 46.48" stroke="hsl(23.399999999999977, 42.7%, 48.9%)" stroke-width="1.5"></path><path d="M1431.97 108.71L1431.97 108.71" stroke="hsl(23.399999999999977, 42.7%, 48.9%)" stroke-width="1.5"></path><path d="M1431.97 108.71L1399.74 259.29" stroke="hsl(23.399999999999977, 42.7%, 48.9%)" stroke-width="1.5"></path><path d="M1431.97 108.71L1588.88 46.48" stroke="hsl(23.399999999999977, 42.7%, 48.9%)" stroke-width="1.5"></path><path d="M1431.97 108.71L1577.78 229.93" stroke="hsl(23.399999999999977, 42.7%, 48.9%)" stroke-width="1.5"></path><path d="M1399.74 259.29L1399.74 259.29" stroke="hsl(23.399999999999977, 42.7%, 48.9%)" stroke-width="1.5"></path><path d="M1399.74 259.29L1416.01 395.12" stroke="hsl(23.399999999999977, 42.7%, 48.9%)" stroke-width="1.5"></path><path d="M1399.74 259.29L1577.78 229.93" stroke="hsl(23.399999999999977, 42.7%, 48.9%)" stroke-width="1.5"></path><path d="M1399.74 259.29L1543.7 379.7" stroke="hsl(23.399999999999977, 42.7%, 48.9%)" stroke-width="1.5"></path><path d="M1416.01 395.12L1416.01 395.12" stroke="hsl(23.399999999999977, 42.7%, 48.9%)" stroke-width="1.5"></path><path d="M1416.01 395.12L1543.7 379.7" stroke="hsl(23.399999999999977, 42.7%, 48.9%)" stroke-width="1.5"></path><path d="M1451.16 538.76L1451.16 538.76" stroke="hsl(23.399999999999977, 42.7%, 48.9%)" stroke-width="1.5"></path><path d="M1451.16 538.76L1540.96 522.16" stroke="hsl(23.399999999999977, 42.7%, 48.9%)" stroke-width="1.5"></path><path d="M1451.16 538.76L1416.01 395.12" stroke="hsl(23.399999999999977, 42.7%, 48.9%)" stroke-width="1.5"></path><path d="M1451.16 538.76L1290.78 533.07" stroke="hsl(23.399999999999977, 42.7%, 48.9%)" stroke-width="1.5"></path><path d="M1451.16 538.76L1396.04 689.82" stroke="hsl(23.399999999999977, 42.7%, 48.9%)" stroke-width="1.5"></path><path d="M1396.04 689.82L1396.04 689.82" stroke="hsl(23.399999999999977, 42.7%, 48.9%)" stroke-width="1.5"></path><path d="M1396.04 689.82L1290.78 533.07" stroke="hsl(23.399999999999977, 42.7%, 48.9%)" stroke-width="1.5"></path><path d="M1396.04 689.82L1585.84 654.85" stroke="hsl(23.399999999999977, 42.7%, 48.9%)" stroke-width="1.5"></path><path d="M1396.04 689.82L1540.96 522.16" stroke="hsl(23.399999999999977, 42.7%, 48.9%)" stroke-width="1.5"></path><path d="M1396.04 689.82L1416.01 395.12" stroke="hsl(23.399999999999977, 42.7%, 48.9%)" stroke-width="1.5"></path><path d="M1558.56 -111.38L1558.56 -111.38" stroke="hsl(23.399999999999977, 42.7%, 48.9%)" stroke-width="1.5"></path><path d="M1558.56 -111.38L1588.88 46.48" stroke="hsl(23.399999999999977, 42.7%, 48.9%)" stroke-width="1.5"></path><path d="M1558.56 -111.38L1431.97 108.71" stroke="hsl(23.399999999999977, 42.7%, 48.9%)" stroke-width="1.5"></path><path d="M1588.88 46.48L1588.88 46.48" stroke="hsl(23.399999999999977, 42.7%, 48.9%)" stroke-width="1.5"></path><path d="M1588.88 46.48L1577.78 229.93" stroke="hsl(23.399999999999977, 42.7%, 48.9%)" stroke-width="1.5"></path><path d="M1588.88 46.48L1399.74 259.29" stroke="hsl(23.399999999999977, 42.7%, 48.9%)" stroke-width="1.5"></path><path d="M1577.78 229.93L1577.78 229.93" stroke="hsl(23.399999999999977, 42.7%, 48.9%)" stroke-width="1.5"></path><path d="M1577.78 229.93L1543.7 379.7" stroke="hsl(23.399999999999977, 42.7%, 48.9%)" stroke-width="1.5"></path><path d="M1577.78 229.93L1416.01 395.12" stroke="hsl(23.399999999999977, 42.7%, 48.9%)" stroke-width="1.5"></path><path d="M1543.7 379.7L1543.7 379.7" stroke="hsl(23.399999999999977, 42.7%, 48.9%)" stroke-width="1.5"></path><path d="M1540.96 522.16L1540.96 522.16" stroke="hsl(23.399999999999977, 42.7%, 48.9%)" stroke-width="1.5"></path><path d="M1540.96 522.16L1585.84 654.85" stroke="hsl(23.399999999999977, 42.7%, 48.9%)" stroke-width="1.5"></path><path d="M1540.96 522.16L1543.7 379.7" stroke="hsl(23.399999999999977, 42.7%, 48.9%)" stroke-width="1.5"></path><path d="M1540.96 522.16L1416.01 395.12" stroke="hsl(23.399999999999977, 42.7%, 48.9%)" stroke-width="1.5"></path><path d="M1540.96 522.16L1290.78 533.07" stroke="hsl(23.399999999999977, 42.7%, 48.9%)" stroke-width="1.5"></path><path d="M1585.84 654.85L1585.84 654.85" stroke="hsl(23.399999999999977, 42.7%, 48.9%)" stroke-width="1.5"></path><path d="M1585.84 654.85L1451.16 538.76" stroke="hsl(23.399999999999977, 42.7%, 48.9%)" stroke-width="1.5"></path><path d="M1585.84 654.85L1543.7 379.7" stroke="hsl(23.399999999999977, 42.7%, 48.9%)" stroke-width="1.5"></path><circle r="25" cx="967.26" cy="531.16" fill="url(#SvgjsRadialGradient1488)"></circle><circle r="25" cx="969.58" cy="667.37" fill="url(#SvgjsRadialGradient1488)"></circle><circle r="25" cx="1121.32" cy="561.66" fill="url(#SvgjsRadialGradient1488)"></circle><circle r="25" cx="1237.79" cy="58.32" fill="url(#SvgjsRadialGradient1488)"></circle><circle r="5" cx="-44.11" cy="552.13" fill="#c4ab9b"></circle><circle r="5" cx="-45.38" cy="646.09" fill="#c4ab9b"></circle><circle r="5" cx="87.71" cy="551.71" fill="#c4ab9b"></circle><circle r="5" cx="112.46" cy="706.5" fill="#c4ab9b"></circle><circle r="5" cx="206" cy="501.65" fill="#c4ab9b"></circle><circle r="5" cx="212.36" cy="651.18" fill="#c4ab9b"></circle><circle r="5" cx="392.86" cy="703.06" fill="#c4ab9b"></circle><circle r="5" cx="543.12" cy="405.06" fill="#c4ab9b"></circle><circle r="5" cx="544.87" cy="522.44" fill="#c4ab9b"></circle><circle r="5" cx="699.47" cy="411.99" fill="#c4ab9b"></circle><circle r="5" cx="679.3" cy="496.51" fill="#c4ab9b"></circle><circle r="5" cx="694.24" cy="708.33" fill="#c4ab9b"></circle><circle r="5" cx="843.81" cy="372.05" fill="#c4ab9b"></circle><circle r="5" cx="806.08" cy="516.19" fill="#c4ab9b"></circle><circle r="5" cx="800.53" cy="652.78" fill="#c4ab9b"></circle><circle r="5" cx="942.24" cy="369.32" fill="#c4ab9b"></circle><circle r="5" cx="1122.11" cy="216.83" fill="#c4ab9b"></circle><circle r="5" cx="1142.25" cy="357.12" fill="#c4ab9b"></circle><circle r="5" cx="1095.85" cy="656.39" fill="#c4ab9b"></circle><circle r="5" cx="1286.37" cy="-49.42" fill="#c4ab9b"></circle><circle r="5" cx="1248.31" cy="404.32" fill="#c4ab9b"></circle><circle r="5" cx="1290.78" cy="533.07" fill="#c4ab9b"></circle><circle r="5" cx="1252.2" cy="650.12" fill="#c4ab9b"></circle><circle r="5" cx="1430.36" cy="-110.28" fill="#c4ab9b"></circle><circle r="5" cx="1431.97" cy="108.71" fill="#c4ab9b"></circle><circle r="5" cx="1399.74" cy="259.29" fill="#c4ab9b"></circle><circle r="5" cx="1416.01" cy="395.12" fill="#c4ab9b"></circle><circle r="5" cx="1451.16" cy="538.76" fill="#c4ab9b"></circle><circle r="5" cx="1396.04" cy="689.82" fill="#c4ab9b"></circle><circle r="5" cx="1558.56" cy="-111.38" fill="#c4ab9b"></circle><circle r="5" cx="1588.88" cy="46.48" fill="#c4ab9b"></circle><circle r="5" cx="1577.78" cy="229.93" fill="#c4ab9b"></circle><circle r="5" cx="1543.7" cy="379.7" fill="#c4ab9b"></circle><circle r="5" cx="1540.96" cy="522.16" fill="#c4ab9b"></circle><circle r="5" cx="1585.84" cy="654.85" fill="#c4ab9b"></circle></g><defs><mask id="SvgjsMask1486"><rect width="1440" height="560" fill="#ffffff"></rect></mask><linearGradient x1="15.28%" y1="-39.29%" x2="84.72%" y2="139.29%" gradientUnits="userSpaceOnUse" id="SvgjsLinearGradient1487"><stop stop-color="#0e2a47" offset="0"></stop><stop stop-color="rgba(179, 186, 112, 1)" offset="1"></stop></linearGradient><radialGradient id="SvgjsRadialGradient1488"><stop stop-color="#ffffff" offset="0.1"></stop><stop stop-color="rgba(137, 87, 55, 1)" offset="0.2"></stop><stop stop-color="rgba(137, 87, 55, 0)" offset="1"></stop></radialGradient></defs></svg>